<?xml version="1.0" encoding="UTF-8" standalone="no"?>
<!-- Created with Inkscape (http://www.inkscape.org/) -->

<svg
   xmlns:dc="http://purl.org/dc/elements/1.1/"
   xmlns:cc="http://creativecommons.org/ns#"
   xmlns:rdf="http://www.w3.org/1999/02/22-rdf-syntax-ns#"
   xmlns:svg="http://www.w3.org/2000/svg"
   xmlns="http://www.w3.org/2000/svg"
   xmlns:sodipodi="http://sodipodi.sourceforge.net/DTD/sodipodi-0.dtd"
   xmlns:inkscape="http://www.inkscape.org/namespaces/inkscape"
   id="svg4305"
   version="1.1"
   inkscape:version="0.91 r13725"
width="512px" 
height="512px" 
viewBox="0 0 1133.000000 1280.000000"
preserveAspectRatio="none">
   sodipodi:docname="Hen.svg">
  <metadata
     id="metadata4311">
    <rdf:RDF>
      <cc:Work
         rdf:about="">
        <dc:format>image/svg+xml</dc:format>
        <dc:type
           rdf:resource="http://purl.org/dc/dcmitype/StillImage" />
        <dc:title></dc:title>
      </cc:Work>
    </rdf:RDF>
  </metadata>
  <defs
     id="defs4309" />
  <sodipodi:namedview
     pagecolor="#ffffff"
     bordercolor="#666666"
     borderopacity="1"
     objecttolerance="10"
     gridtolerance="10"
     guidetolerance="10"
     inkscape:pageopacity="0"
     inkscape:pageshadow="2"
     inkscape:window-width="1600"
     inkscape:window-height="837"
     id="namedview4307"
     showgrid="false"
     inkscape:zoom="0.89782245"
     inkscape:cx="310.78125"
     inkscape:cy="373.125"
     inkscape:window-x="-8"
     inkscape:window-y="-8"
     inkscape:window-maximized="1"
     inkscape:current-layer="svg4305" />
  <path
     style="fill:#000000"
     d="m 114.85937,744.0071 c -2.61879,-2.6188 -2.81979,-4.02993 -1.33547,-9.37586 1.08053,-3.89161 8.25748,-11.81874 10.7003,-11.81874 0.77043,0 1.4008,-0.35649 1.4008,-0.7922 0,-1.11476 -3.21263,-3.8953 -4.50062,-3.8953 -1.19251,0 -0.8787,-8.96038 0.62382,-17.8125 0.48137,-2.83594 0.80816,-5.23069 0.72621,-5.32166 -0.0819,-0.091 -2.61321,1.49104 -5.62503,3.51562 -5.6123,3.77263 -9.03688,4.67818 -9.03688,2.38958 0,-1.41997 1.91964,-3.25 5.02186,-4.78741 4.25127,-2.10687 2.51265,-12.27557 -2.64373,-15.46239 -1.6133,-0.99706 -5.33026,-4.38854 -8.25993,-7.5366 -6.225356,-6.68944 -7.670147,-10.65206 -6.355453,-17.43115 3.846947,-19.83647 8.476783,-29.17539 20.077383,-40.49846 4.32755,-4.22402 8.31679,-7.68003 8.865,-7.68003 3.02799,0 1.30278,2.78385 -6.31038,10.18261 -6.7988,6.60732 -9.08054,9.54485 -11.41753,14.69899 -3.2891,7.25393 -5.97919,16.99998 -6.92587,25.09202 -0.786544,6.72326 -0.108684,7.92115 9.94082,17.56696 6.81705,6.54323 7.4486,7.47421 8.44882,12.45467 0.6092,3.03341 1.52136,5.23605 2.08989,5.04654 0.55488,-0.18496 1.86476,-2.07846 2.91087,-4.20778 2.18613,-4.44985 4.78122,-5.13849 6.11766,-1.6234 0.99394,2.61428 0.50116,4.4804 -2.14004,8.10408 -1.31848,1.80894 -1.91779,4.5718 -2.23698,10.3125 -0.37602,6.7626 -0.17107,8.26079 1.48952,10.88844 1.05904,1.67578 2.69111,3.04687 3.62681,3.04687 0.93571,0 2.16224,0.46096 2.72563,1.02435 1.1477,1.1477 4.97565,-0.38701 4.97565,-1.99483 0,-0.49749 0.63281,-0.90452 1.40625,-0.90452 1.68945,0 1.73544,0.43535 0.32841,3.10851 -1.53452,2.91534 -2.59942,3.41854 -7.35966,3.47774 -4.86067,0.0605 -8.51457,2.71436 -12.22938,8.8825 l -2.25847,3.75 4.02139,-3.17215 c 2.98213,-2.35237 5.76276,-3.51116 10.75955,-4.4839 3.70598,-0.72145 7.89832,-1.55671 9.31628,-1.85612 1.85841,-0.39241 2.57813,-0.17248 2.57813,0.78784 0,1.7952 -6.26191,4.44729 -12.14603,5.14418 -5.6489,0.66902 -8.16485,3.36225 -8.64575,9.25494 -0.27837,3.41109 -0.53881,3.72308 -3.33323,3.99282 -2.24011,0.21624 -3.64704,-0.32318 -5.39062,-2.06676 z m 73.10938,-9.04047 c -1.54688,-0.4287 -6.40489,-1.25835 -10.79558,-1.84366 -4.9533,-0.6603 -8.86351,-1.7283 -10.30289,-2.81402 l -2.31979,-1.74983 1.58612,-4.27956 1.58611,-4.27956 -4.50271,0 c -4.91257,0 -10.03268,-1.41467 -12.35633,-3.414 -2.05779,-1.77059 -2.73868,-1.59535 -2.73868,0.70483 0,1.10847 1.88679,3.83844 4.29119,6.20881 4.40226,4.33999 4.53353,6.33808 0.37583,5.72035 -3.36013,-0.49922 -7.59665,-8.9269 -8.18747,-16.28728 -0.44027,-5.48489 -0.31898,-6.05715 1.28272,-6.05178 0.98844,0.004 2.48904,1.27109 3.40086,2.87324 0.89753,1.57701 2.05769,2.60414 2.57812,2.28249 0.52044,-0.32165 0.94625,0.0833 0.94625,0.89996 0,1.96237 3.78614,3.34241 11.25,4.10061 l 6.09375,0.61902 0,4.1349 c 0,4.75249 1.85452,6.18021 3.25228,2.5038 1.44426,-3.79868 3.78046,-3.15553 3.12862,0.8613 -0.4262,2.62634 -0.22732,3.28125 0.99644,3.28125 0.8409,0 1.52891,-0.42187 1.52891,-0.9375 0,-1.48582 2.55399,-1.08839 3.16036,0.49178 0.38731,1.00932 1.25427,1.25213 2.95058,0.82638 1.64013,-0.41164 2.98138,-0.0787 4.22819,1.04969 1.75372,1.5871 1.96835,1.554 5.41559,-0.83493 2.96038,-2.05154 4.69274,-2.50408 9.88421,-2.58195 5.48034,-0.0822 6.14388,-0.27618 5.12884,-1.49923 -0.92592,-1.11566 -2.45801,-1.27746 -7.44409,-0.78614 -3.84283,0.37866 -6.50184,0.25685 -6.85466,-0.31402 -0.36487,-0.59038 -2.09343,-0.37042 -4.7101,0.59939 -3.31882,1.23005 -4.60805,1.31592 -6.54005,0.43564 -1.32351,-0.60302 -2.40637,-1.7302 -2.40637,-2.50483 0,-1.11403 0.93079,-1.32082 4.45312,-0.98935 3.10982,0.29265 3.74612,0.18897 2.10938,-0.3437 -6.4742,-2.10699 -6.6701,-2.22901 -6.02004,-3.75006 0.35668,-0.83458 0.69694,-2.36117 0.75615,-3.39242 0.0956,-1.66459 -0.40733,-1.84796 -4.48131,-1.63406 -2.94453,0.1546 -4.99042,0.78998 -5.7093,1.77311 -1.51436,2.07102 -7.39087,0.97699 -11.49863,-2.14072 -5.88606,-4.46738 -3.06347,-7.30652 3.97484,-3.99812 3.80439,1.78827 4.85985,1.92933 7.44404,0.99488 1.65612,-0.59887 4.34373,-1.08884 5.97246,-1.08884 4.19468,0 10.32527,2.66232 10.99586,4.77515 0.9152,2.88356 3.42985,2.23821 3.08132,-0.79078 C 192.58097,708.56446 186.085,705 180.56609,705 c -7.39028,0 -14.74914,-5.5269 -13.09574,-9.83561 0.65768,-1.71389 4.18748,-1.85936 5.88502,-0.24252 1.00422,0.95648 1.11094,0.77695 0.58064,-0.97668 -1.4834,-4.90535 -0.64291,-13.09756 1.84809,-18.01332 1.97383,-3.89517 2.69527,-4.61735 3.74349,-3.74741 1.31198,1.08884 1.10928,2.28548 -1.11211,6.56554 -1.40634,2.70967 -1.58452,5.29399 -0.41483,6.01689 0.44723,0.27642 1.01936,2.33211 1.27141,4.56823 0.86789,7.69989 2.61767,9.75236 12.58718,14.76463 4.01881,2.02049 4.98056,3.77047 5.00296,9.10337 0.012,2.86276 0.22524,3.05727 3.52843,3.21872 1.93359,0.0945 4.78125,0.11629 6.32812,0.0484 1.54688,-0.0679 5.76563,0.28234 9.375,0.77833 5.48392,0.75358 6.98623,1.3644 9.14063,3.71642 3.00675,3.28256 3.18948,5.25865 0.75603,8.17565 -1.86129,2.23114 -4.28848,2.66633 -6.61541,1.18613 -1.15909,-0.73732 -1.20028,-1.22688 -0.23437,-2.78542 1.60536,-2.59036 1.5054,-2.85383 -1.08267,-2.85383 -2.07152,0 -2.21553,0.29079 -1.77408,3.58211 0.61036,4.55062 -1.48393,6.95668 -5.69835,6.54664 -2.4099,-0.23447 -2.88968,-0.65901 -2.70596,-2.39438 0.32544,-3.07391 -3.83608,-2.79218 -10.38614,0.70313 -2.89878,1.54687 -5.59488,2.76943 -5.99134,2.71679 -0.39646,-0.0527 -1.98646,-0.44646 -3.53334,-0.87516 z M 215.625,720.9375 c 0,-0.51563 -1.37109,-0.93104 -3.04688,-0.92315 -2.31208,0.0109 -2.70774,0.23353 -1.64062,0.92315 1.84265,1.19081 4.6875,1.19081 4.6875,0 z m -15,-0.41342 c 0,-0.98951 -1.79917,-1.40523 -2.3343,-0.53937 -0.32387,0.52403 0.0688,0.95279 0.87272,0.95279 0.80387,0 1.46158,-0.18604 1.46158,-0.41342 z m -39.52956,9.15755 c -0.85844,-0.22735 -1.81053,-1.06418 -2.11577,-1.85962 -0.7652,-1.99407 1.46184,-6.32465 3.44934,-6.70742 1.37967,-0.26569 1.63349,0.42447 1.63349,4.44167 0,2.61593 -0.31641,4.7073 -0.70313,4.64749 -0.38671,-0.0598 -1.40549,-0.29477 -2.26393,-0.52212 z m 209.49967,-16.8599 c -1.57014,-4.09169 5.19297,-9.3769 13.77989,-10.76868 6.53402,-1.05904 13.4636,-3.2251 13.82951,-4.32285 0.34474,-1.03419 -9.83052,-11.4802 -11.18263,-11.4802 -0.42454,0 -0.77188,-0.63281 -0.77188,-1.40625 0,-0.77344 0.77692,-1.40625 1.72649,-1.40625 1.87798,0 4.8919,2.22075 10.62508,7.82888 6.20658,6.07121 4.14113,11.05919 -5.18116,12.51229 -1.62341,0.25304 -3.54384,0.94777 -4.26762,1.54383 -0.72379,0.59606 -3.34544,1.08375 -5.8259,1.08375 -3.20919,0 -4.99277,0.51157 -6.18404,1.77372 -1.42519,1.51 -1.44799,1.69545 -0.15333,1.2473 0.83641,-0.28954 3.39184,-0.80702 5.67872,-1.14996 3.16686,-0.4749 4.44372,-0.2792 5.35681,0.82102 1.7482,2.10644 0.36375,3.60859 -2.70468,2.93464 -1.53615,-0.33739 -4.07585,0.029 -6.11899,0.88262 -4.52715,1.89156 -7.85833,1.85523 -8.60627,-0.0939 z m 19.80222,-2.51352 c -0.8024,-2.09102 0.3018,-3.43321 2.82445,-3.43321 1.1955,0 2.69882,-0.63281 3.34072,-1.40625 0.6419,-0.77344 1.74824,-1.40625 2.45854,-1.40625 0.7103,0 1.29146,-0.42188 1.29146,-0.9375 0,-0.51563 0.84375,-0.9375 1.875,-0.9375 1.03125,0 1.875,0.38954 1.875,0.86565 0,0.4761 1.20225,0.26588 2.67166,-0.46716 2.34901,-1.17184 3.04094,-1.14858 5.72942,0.19261 2.56719,1.28068 3.1891,1.31803 3.87648,0.23278 0.45031,-0.71095 0.82519,-1.81997 0.83309,-2.4645 0.0259,-2.10828 2.85171,-1.22855 3.76435,1.17187 1.06713,2.80675 2.8125,3.09765 2.8125,0.46875 0,-1.04167 -0.625,-1.875 -1.40625,-1.875 -0.85344,0 -1.40625,-0.87126 -1.40625,-2.21632 0,-1.89984 -0.57402,-2.295 -4.01978,-2.7673 -5.34195,-0.7322 -11.64861,-4.36697 -16.43187,-9.47033 -2.14594,-2.28956 -4.71137,-4.4198 -5.70093,-4.73388 -1.99108,-0.63194 -3.23236,-2.96949 -2.34194,-4.41024 0.78321,-1.26724 5.10963,-0.0834 7.40077,2.02509 2.25454,2.0748 10.25996,3.48739 11.19448,1.9753 0.38607,-0.62466 -0.16546,-1.02732 -1.40714,-1.02732 -2.66644,0 -12.4684,-5.97424 -14.23448,-8.67583 -0.757,-1.15798 -1.67654,-3.05464 -2.04342,-4.2148 -0.53972,-1.70672 -0.30913,-2.10937 1.20795,-2.10937 1.03761,0 2.13495,0.81901 2.45704,1.83383 0.32012,1.0086 1.93058,2.9134 3.5788,4.23287 1.64822,1.31949 3.44521,2.75751 3.99332,3.19561 2.24267,1.7926 4.86048,2.77493 9.08157,3.40786 2.44922,0.36725 4.44667,0.93623 4.43878,1.2644 -0.031,1.29054 -1.53502,2.6199 -4.67315,4.13061 -1.80469,0.8688 -2.75391,1.58924 -2.10938,1.60097 2.49657,0.0455 1.14036,2.83456 -1.40625,2.892 -2.41633,0.0545 -2.34278,0.16626 1.17188,1.78063 5.47201,2.51341 13.38884,4.12626 18.75,3.81981 2.57812,-0.14736 6.375,-0.20067 8.4375,-0.11847 2.0625,0.0822 5.89935,-0.56299 8.52634,-1.43376 4.61418,-1.52945 5.04324,-1.51293 12.63827,0.487 4.32406,1.13862 8.6083,2.74566 9.52053,3.57122 2.28067,2.06398 2.07947,5.49682 -0.42499,7.25101 -2.85418,1.99915 -13.69033,2.03901 -14.45237,0.0532 -0.85055,-2.21647 -2.9344,-1.64626 -4.28263,1.17187 -1.86838,3.90535 -8.22322,5.20097 -18.84825,3.84278 -6.16581,-0.78817 -8.53132,-0.78523 -9.32813,0.0115 -1.78353,1.78353 -7.70473,1.28542 -9.59877,-0.80748 -2.15753,-2.38405 -3.05855,-2.35774 -5.08801,0.14853 -1.05001,1.29671 -3.29276,2.28614 -6.24402,2.75465 -2.53301,0.40211 -5.76038,1.01626 -7.17193,1.36478 -1.88052,0.4643 -2.71707,0.24119 -3.12996,-0.83475 z m 43.99787,-7.29612 c 1.08489,0.90038 1.89466,0.9278 3.41236,0.11555 1.09446,-0.58573 3.14887,-0.81041 4.56539,-0.4993 2.13128,0.46811 3.10928,-0.0209 5.67053,-2.83556 2.73988,-3.01091 3.46007,-3.33276 6.27579,-2.80452 3.73814,0.70127 4.21471,-0.59118 0.79287,-2.15027 -4.84087,-2.20566 -8.25579,-1.00918 -11.20589,3.92617 -0.68939,1.15332 -2.86032,1.72619 -8.20313,2.16468 -3.99609,0.32796 -7.26562,0.88595 -7.26562,1.23998 0,1.41492 1.22835,1.72793 2.83745,0.72303 1.28478,-0.80237 2.04382,-0.77312 3.12025,0.12024 z m 2.94855,-6.6854 c 0.62991,-0.63554 -0.29287,-0.75542 -2.8125,-0.36535 -2.0625,0.31928 -5.01563,0.62722 -6.5625,0.68429 -2.76105,0.10188 -2.76962,0.11746 -0.46875,0.85196 2.74142,0.87513 8.49406,0.19087 9.84375,-1.1709 z m -305.08123,12.53662 c -2.08012,-1.62104 -2.17043,-2.00538 -1.08622,-4.6229 0.65039,-1.57017 2.033,-3.62364 3.07246,-4.56326 1.62719,-1.4709 6.55901,-11.0158 10.57078,-20.4584 2.20632,-5.19307 3.43761,-10.93526 3.19406,-14.89571 -0.13295,-2.1619 0.0778,-4.44776 0.46837,-5.07968 1.4734,-2.38399 2.45553,0.14753 2.45553,6.32931 0,8.10278 -2.19429,15.68866 -7.06203,24.41414 -0.7151,1.28181 -1.06043,3.28571 -0.76744,4.45312 0.29301,1.16742 0.11026,2.12257 -0.40609,2.12257 -1.3973,0 -2.32687,2.67018 -2.93738,8.4375 -0.49139,4.64215 -0.77949,5.17993 -2.88956,5.39379 -1.28906,0.13065 -3.36468,-0.55807 -4.61248,-1.53048 z m 189.6207,0.30774 c -0.32001,-0.83392 0.34113,-2.41096 1.55033,-3.6981 3.37387,-3.59132 1.99794,-6.5621 -4.47408,-9.66 -3.94313,-1.88741 -5.44815,-3.14561 -5.6766,-4.74568 -0.20265,-1.41928 -1.90987,-3.17132 -4.90355,-5.0323 -5.25064,-3.26398 -6.20844,-5.89733 -5.21605,-14.34101 0.3527,-3.00093 0.2123,-5.25221 -0.3492,-5.59924 -1.64332,-1.01563 -1.012,-3.31566 1.12731,-4.10704 2.01903,-0.74689 2.00401,-0.79455 -0.65532,-2.07917 -2.08957,-1.0094 -4.03925,-3.92765 -8.39451,-12.56476 -5.21304,-10.33823 -5.99571,-11.39999 -9.65718,-13.10074 -4.03425,-1.8739 -5.11482,-3.86807 -2.61564,-4.82709 0.75279,-0.28887 3.72048,0.55145 6.59485,1.86738 4.22631,1.93486 5.50683,3.07227 6.69339,5.94527 0.80699,1.95397 2.00031,4.18549 2.65184,4.95893 0.65151,0.77344 1.90026,3.32587 2.77496,5.67206 2.27136,6.09234 6.76942,10.62046 12.11899,12.2 4.81585,1.42195 7.75448,3.8649 6.7005,5.57028 -0.36048,0.58326 -1.35102,0.77349 -2.20121,0.42272 -2.80744,-1.1583 -10.82696,-3.17766 -11.18754,-2.81708 -0.19466,0.19466 0.15027,1.29603 0.76651,2.44748 0.86358,1.61362 0.86749,2.93776 0.0171,5.77627 -1.65752,5.53233 -0.54451,8.69275 4.28207,12.15894 2.301,1.65245 4.69778,4.08078 5.32616,5.39627 0.62838,1.31549 2.08903,2.52678 3.24587,2.69175 1.15685,0.16497 3.57869,1.69135 5.38184,3.39195 2.57697,2.43038 3.27849,3.82059 3.27849,6.49693 0,1.87271 0.42187,3.40493 0.9375,3.40493 0.51562,0 0.9375,-0.63281 0.9375,-1.40625 0,-0.77344 0.42807,-1.40625 0.95128,-1.40625 1.89532,0 4.66671,-6.09241 4.69106,-10.3125 0.0256,-4.44306 2.65942,-9.21145 4.46984,-8.09256 0.54695,0.33804 1.66673,2.61356 2.48839,5.05671 1.29174,3.84088 2.09828,4.7276 5.95906,6.55147 2.45582,1.16016 5.68622,2.10938 7.17866,2.10938 l 2.71355,0 -2.03843,-2.1698 C 355.25219,693.09622 354.60278,690 356.23295,690 c 0.50624,0 2.47751,1.51212 4.3806,3.36027 2.76402,2.68423 3.19183,3.53009 2.12643,4.20439 -0.73355,0.46427 -1.81594,0.85059 -2.4053,0.85849 -0.58937,0.008 -1.33598,0.70337 -1.65913,1.54549 -1.28155,3.33965 -17.42555,-1.64875 -17.42555,-5.38439 0,-3.35373 -1.62888,-1.76612 -2.14636,2.092 -0.33991,2.5342 -1.48567,4.87307 -3.32967,6.79687 -1.54629,1.61322 -3.68895,3.88235 -4.76145,5.0425 -2.34147,2.53282 -8.2462,2.95674 -9.1293,0.65543 z m 59.79031,-15.91215 c -1.07204,-1.81698 -2.69575,-3.53528 -3.60822,-3.81844 -4.54999,-1.41196 -7.75281,-3.30467 -7.75281,-4.58154 0,-1.78427 0.91118,-1.77932 6.38634,0.0347 5.71313,1.89281 7.11668,3.033 8.43803,6.85473 1.92429,5.56564 -0.45778,6.60462 -3.46334,1.51059 z m -199.22948,0.88317 c -1.03509,-2.6974 -0.59091,-7.36443 1.10802,-11.64207 2.3031,-5.79885 6.84445,-12.78366 9.10418,-14.00262 1.03125,-0.5563 4.61719,-3.32028 7.96875,-6.14219 3.35156,-2.82192 6.45139,-5.13906 6.88851,-5.14922 1.62087,-0.0377 15.27254,-10.27945 18.96944,-14.23128 2.10468,-2.24983 4.11663,-5.24576 4.47098,-6.65764 0.64096,-2.55378 2.77412,-3.4348 3.90114,-1.61122 1.20889,1.95603 -1.75497,7.77318 -6.1202,12.01212 -7.07777,6.87297 -11.2558,10.09854 -19.49325,15.0494 -15.5998,9.37576 -22.65134,17.82479 -23.17165,27.7639 -0.28765,5.49471 -0.45977,6.09375 -1.75092,6.09375 -0.71827,0 -1.56202,-0.66731 -1.875,-1.48293 z m 180.13407,-0.96672 c -2.76943,-1.50675 -3.49637,-4.11285 -1.14723,-4.11285 4.1287,0 13.56911,2.4316 13.56911,3.49505 0,0.65584 -0.73828,1.19709 -1.64063,1.20277 -0.90234,0.006 -3.11718,0.19197 -4.92187,0.414 -1.88264,0.23162 -4.38016,-0.19418 -5.85938,-0.99897 z M 131.75359,674.11886 c -0.29952,-0.48463 0.30681,-2.2776 1.34741,-3.98437 2.56665,-4.20982 2.43247,-8.01882 -0.37408,-10.61985 -3.08527,-2.85933 -5.02757,-9.36738 -3.51737,-11.78559 0.9158,-1.46643 0.8622,-1.79155 -0.29536,-1.79155 -0.78919,0 -1.41419,0.82866 -1.41419,1.875 0,2.0844 -2.34383,2.57355 -3.08438,0.64371 -0.86457,-2.253 0.47264,-6.71662 2.49471,-8.32747 1.59752,-1.27263 1.762,-1.82467 0.82405,-2.76562 -1.7184,-1.72389 -1.4577,-3.59129 1.2967,-9.28843 4.42834,-9.15947 7.4714,-13.18418 20.6955,-27.37157 1.8023,-1.93359 3.86675,-3.51562 4.58767,-3.51562 2.53058,0 1.26982,2.62017 -2.908,6.04358 -2.32031,1.90132 -4.21875,3.84648 -4.21875,4.32257 0,0.4761 -1.81611,3.51834 -4.0358,6.76052 -8.28317,12.09881 -11.85152,26.57462 -8.63008,35.00983 0.92554,2.4235 1.39556,5.38697 1.09375,6.89606 -0.41856,2.09275 -0.14608,2.74648 1.30268,3.12534 2.47816,0.64805 2.41495,5.04554 -0.15849,11.02768 -1.87007,4.34709 -3.76024,5.76143 -5.00597,3.74578 z m 286.72766,-0.48021 c -0.75863,-1.97695 0.1774,-3.01101 3.28886,-3.63329 1.51064,-0.30213 4.05015,-1.93866 5.64336,-3.63673 3.65487,-3.89542 2.58239,-4.24566 -7.97383,-2.60401 -5.76018,0.89579 -9.88257,0.93989 -17.08797,0.18281 -10.3008,-1.08233 -11.41417,-1.43771 -11.41417,-3.64335 0,-1.09059 0.53401,-1.28832 2.10937,-0.7811 3.8927,1.25335 19.86625,2.46678 25.47607,1.93529 3.0548,-0.28941 6.21886,-1.12241 7.03125,-1.8511 0.81238,-0.72869 3.25412,-2.03253 5.42607,-2.89743 2.17196,-0.86489 4.20431,-2.37684 4.51631,-3.35989 0.3532,-1.11284 1.42793,-1.78735 2.84786,-1.78735 2.0192,0 2.28057,0.41194 2.28057,3.59426 0,3.13662 -0.74603,4.36695 -5.85938,9.663 -3.28889,3.40642 -7.80845,6.9706 -10.30228,8.12449 -5.26295,2.43518 -5.3119,2.44087 -5.98209,0.6944 z M 385.3125,649.11003 c -9.18068,-3.49804 -15,-10.59522 -15,-18.29386 0,-3.56513 4.62779,-14.65515 6.39914,-15.33489 3.0494,-1.17015 3.29988,1.25688 0.86313,8.36317 -2.04673,5.96887 -2.26033,7.54576 -1.40125,10.34486 0.55745,1.81639 1.81873,4.03119 2.80282,4.92177 1.7261,1.5621 1.76664,1.52916 1.14857,-0.93341 -1.03839,-4.13729 0.1739,-7.24017 2.82872,-7.24017 1.2611,0 2.6887,0.73957 3.17247,1.64348 0.95317,1.78103 8.29639,4.32654 12.70131,4.40289 1.5035,0.0261 2.90023,0.54616 3.10383,1.15579 0.64644,1.93551 -3.75406,3.43635 -10.28814,3.50888 -3.47911,0.0386 -6.32677,0.36515 -6.32812,0.72563 -9.4e-4,0.36047 1.51329,1.81155 3.3659,3.2246 2.66528,2.03291 4.33105,2.55467 7.98026,2.49961 5.26313,-0.0794 6.80677,1.14872 3.17799,2.52837 -3.79704,1.44364 -7.87439,1.01792 -14.52663,-1.51672 z m -148.42729,-8.47482 c -2.2902,-2.29019 3.03808,-5.90445 8.47661,-5.74982 3.24976,0.0924 5.70734,-0.66782 13.17728,-4.07618 3.23558,-1.47632 6.44443,-2.68421 7.13081,-2.68421 3.94014,0 30.4377,-25.7736 35.66218,-34.68783 1.76046,-3.00376 5.15369,-7.9239 7.54053,-10.93365 2.38684,-3.00975 5.90209,-7.48498 7.81166,-9.94496 1.90959,-2.45997 3.99931,-5.06656 4.64385,-5.79241 0.64453,-0.72585 1.17187,-1.69765 1.17187,-2.15957 0,-0.46191 3.09191,-4.11763 6.87092,-8.12381 5.4602,-5.78845 7.34084,-7.2224 9.15963,-6.98406 2.30343,0.30186 6.72429,-2.519 12.38069,-7.89987 3.32724,-3.16517 14.06038,-10.25216 20.18759,-13.32968 7.52583,-3.78001 19.04335,-12.52023 23.28335,-17.66888 1.12115,-1.36141 3.01959,-2.49316 4.21875,-2.51501 3.21336,-0.0586 14.02284,-6.43657 20.71145,-12.22054 13.69218,-11.84031 28.92063,-28.63006 34.07284,-37.56617 0.57281,-0.99349 1.85608,-2.73975 2.85171,-3.88058 0.99563,-1.14083 2.52722,-3.55079 3.40353,-5.35548 0.87631,-1.80469 3.95021,-7.07813 6.83087,-11.71875 2.88067,-4.64063 6.3008,-10.96875 7.6003,-14.0625 1.29949,-3.09375 3.31676,-6.89063 4.48282,-8.4375 2.69381,-3.57358 7.46099,-13.06967 8.70682,-17.34375 0.52604,-1.80469 2.11321,-8.34375 3.52704,-14.53125 2.59918,-11.37503 3.05329,-12.7546 7.25183,-22.03125 1.28354,-2.83594 2.64809,-6.63281 3.03237,-8.4375 0.38426,-1.80469 1.23498,-3.91406 1.89048,-4.6875 0.65551,-0.77344 1.91619,-4.78125 2.80153,-8.90625 0.88532,-4.125 2.37185,-10.03125 3.30338,-13.125 0.93154,-3.09375 1.95592,-8.36719 2.27641,-11.71875 0.32049,-3.35156 1.07102,-9.12775 1.66783,-12.83597 1.13912,-7.07775 0.38359,-13.01038 -2.46888,-19.38615 -0.72199,-1.61377 -1.48808,-3.55779 -1.70245,-4.32005 -0.21436,-0.76224 -1.41234,-1.39505 -2.66215,-1.40625 -1.62026,-0.0145 -2.35672,-0.61297 -2.56619,-2.08538 -0.16156,-1.13578 -1.11078,-2.32436 -2.10937,-2.6413 -0.99858,-0.31694 -1.8156,-1.18063 -1.8156,-1.91933 0,-0.73868 -0.43547,-1.34307 -0.96771,-1.34307 -0.53224,0 -1.34015,-0.94922 -1.79537,-2.10938 -0.79423,-2.02421 -0.87351,-1.98319 -1.96376,1.01573 -0.85809,2.36033 -1.56585,3.01273 -2.89214,2.66589 -1.10164,-0.28808 -1.75602,0.0321 -1.75602,0.85928 0,0.72516 -0.84375,1.31848 -1.875,1.31848 -1.33928,0 -1.875,-0.625 -1.875,-2.1875 0,-1.20313 0.2658,-2.4533 0.59066,-2.77817 0.32487,-0.32486 0.69545,-2.39908 0.82352,-4.60937 0.45546,-7.86058 2.68751,-18.54996 3.87343,-18.54996 1.83782,0 1.93289,0.83932 1.22122,10.78125 -0.36911,5.15625 -0.5351,9.52371 -0.36889,9.70545 0.16622,0.18175 1.85271,-2.77137 3.74775,-6.5625 1.89504,-3.79112 3.95871,-7.52576 4.58593,-8.2992 1.53924,-1.89806 3.33888,-8.43642 3.33888,-12.13063 0,-2.36244 0.35161,-2.93723 1.64063,-2.68195 1.8107,0.35857 2.03011,2.99494 0.99873,12.00008 l -0.59056,5.15625 4.40809,-9.04284 c 2.42445,-4.97356 5.44393,-10.13425 6.70997,-11.46818 2.38986,-2.51802 5.17662,-3.33181 4.40332,-1.28585 -5.53275,14.63808 -8.17503,23.19539 -9.04615,29.29687 -1.38589,9.70704 -1.47051,16.29029 -0.24706,19.21875 0.9031,2.16163 0.9838,2.0389 1.0386,-1.57933 0.0327,-2.1577 0.70774,-7.00505 1.50012,-10.7719 0.79238,-3.76683 2.06063,-10.40378 2.81834,-14.74877 1.30035,-7.45676 3.59417,-13.74321 8.01019,-21.95265 1.06032,-1.97114 2.28605,-5.55708 2.72383,-7.96875 0.43779,-2.41167 1.84351,-8.18173 3.12385,-12.82235 1.28033,-4.64063 2.62227,-11.08699 2.98208,-14.32525 0.35981,-3.23827 1.24412,-6.47767 1.96511,-7.19866 0.77823,-0.77823 1.31091,-3.24287 1.31091,-6.06537 0,-7.14002 2.68343,-6.1974 3.51419,1.23445 0.64454,5.76599 0.64445,6.31441 -0.002,10.88608 -0.58429,4.13278 -0.57068,4.16129 0.66803,1.39926 2.16795,-4.83401 3.43166,-19.81648 2.80782,-33.28922 -0.94114,-20.32534 -1.04434,-29.45134 -0.34437,-30.45379 0.36004,-0.51563 1.39178,-3.58636 2.29278,-6.82386 1.76208,-6.33161 5.02529,-10.06906 9.65132,-11.05394 4.21941,-0.8983 10.42299,-3.31146 11.02755,-4.28966 0.92177,-1.49145 -0.12055,-1.85677 -2.60384,-0.91263 -3.02901,1.15163 -8.73034,-0.0252 -8.73034,-1.8021 0,-1.00673 0.97883,-1.30746 3.70791,-1.13919 4.05602,0.25008 8.0346,-1.94096 15.25552,-8.40137 2.17988,-1.9503 4.37555,-3.546 4.87926,-3.546 0.50371,0 1.90903,-0.949219 3.12293,-2.109375 1.2139,-1.160156 2.95901,-2.534945 3.87803,-3.055086 1.39102,-0.787292 1.52731,-1.493985 0.81358,-4.21875 -0.70828,-2.704007 -1.23479,-3.218202 -3.02845,-2.95762 -1.85207,0.269071 -2.08881,7.28e-4 -1.61105,-1.826216 0.30802,-1.1779 0.14336,-2.643715 -0.36593,-3.257366 -1.58551,-1.910429 0.75993,-5.269645 7.14398,-10.231837 3.31685,-2.578125 6.03454,-4.801006 6.03931,-4.939736 0.0225,-0.656535 -5.4571,1.143798 -7.96009,2.615283 -1.54688,0.909392 -4.18359,1.943407 -5.85938,2.297811 -2.61342,0.552702 -3.04687,0.385155 -3.04687,-1.177752 0,-1.282584 1.17979,-2.267782 3.98437,-3.327196 6.22759,-2.352432 15.72599,-4.345605 20.78126,-4.360803 4.8893,-0.0147 5.63657,-0.80471 0.9665,-1.021795 -4.74776,-0.220697 -25.37686,2.62683 -27.5827,3.807364 -1.41657,0.758125 -2.4096,0.815406 -3.04912,0.175883 -1.3099,-1.3099 4.65513,-4.233313 12.80683,-6.276521 5.04253,-1.263901 8.98587,-1.527092 17.57812,-1.173221 6.09247,0.250917 11.07722,0.368685 11.07722,0.261706 0,-0.759029 -9.8562,-6.099773 -11.25697,-6.099773 -0.96655,0 -1.98943,-0.375464 -2.27304,-0.834364 -0.28361,-0.458899 -3.99992,-1.979451 -8.25846,-3.379003 -8.52015,-2.800117 -12.94067,-5.166074 -15.46178,-8.27547 -2.14149,-2.641192 -7.76966,-6.381103 -14.53845,-9.660784 -4.91833,-2.383079 -5.66729,-2.504957 -8.68581,-1.413449 -2.10081,0.759666 -5.09,0.971977 -8.2113,0.583217 -6.22735,-0.775624 -15.21574,1.249756 -25.38108,5.719195 -6.0918,2.678411 -8.92856,4.673459 -14.31305,10.066187 -3.6935,3.699147 -6.87199,7.550974 -7.0633,8.559616 -0.19132,1.008642 -1.36905,2.074966 -2.61718,2.369609 -1.24813,0.294643 -2.41526,0.973538 -2.59364,1.508655 -0.40141,1.204226 10.64083,0.570613 13.17658,-0.756081 2.5245,-1.320812 3.89763,0.39027 2.32894,2.902143 -1.27332,2.038903 -1.64909,2.128737 -9.76296,2.333988 -3.86522,0.09778 -5.34218,0.6467 -7.89108,2.932791 -4.63556,4.1576 -11.25992,11.151428 -11.25992,11.887938 0,0.353078 -0.9354,0.938843 -2.07866,1.301702 -2.22093,0.704896 -13.24893,10.134413 -23.23384,19.866152 -3.35156,3.266586 -7.29754,7.079417 -8.76882,8.472978 -3.3304,3.15443 -13.73118,15.98821 -13.73118,16.94324 0,0.38747 3.71706,-3.01255 8.26013,-7.55563 4.54308,-4.54307 8.76183,-8.26013 9.375,-8.26013 1.71802,0 1.31979,2.56075 -0.61135,3.93122 -0.94942,0.67376 -2.27792,2.27972 -2.95222,3.56878 -0.67431,1.28906 -3.52088,4.66406 -6.32571,7.5 -2.80483,2.83594 -6.33992,7.6875 -7.85574,10.78125 -1.51583,3.09375 -3.64657,7.10156 -4.73499,8.90625 -4.39657,7.28989 -6.40512,11.21032 -6.40512,12.50199 0,0.74795 -0.66731,1.61598 -1.48293,1.92896 -2.04352,0.78418 -2.09074,0.76547 -2.43271,-0.96382 -0.1667,-0.84307 -4.28271,6.43427 -9.14668,16.17188 -8.04877,16.11357 -14.91841,28.04044 -18.4863,32.09541 -1.89133,2.14954 -7.34376,10.25988 -9.54845,14.20308 -3.2371,5.78972 -21.27229,22.10482 -28.48493,25.7682 -2.94979,1.49823 -5.15348,2.93382 -4.8971,3.19021 0.71792,0.71791 25.77525,-12.10802 29.45832,-15.07864 3.53064,-2.84766 5.64578,-3.3627 5.64578,-1.37473 0,0.69027 -2.79463,3.11605 -6.21028,5.39063 -3.41566,2.27457 -8.79457,5.92918 -11.95313,8.12134 -10.19206,7.0737 -11.02547,7.53473 -18.27085,10.10689 -5.87547,2.08583 -8.88159,2.55684 -16.96821,2.65864 -8.76105,0.11028 -9.86427,-0.059 -10.16454,-1.55941 -0.30064,-1.50222 0.16516,-1.61652 4.33389,-1.06352 3.66828,0.48661 5.31062,0.24422 7.65221,-1.12939 l 2.98147,-1.74897 -4.52027,-0.46875 c -3.16855,-0.32858 -4.60607,-0.92163 -4.80722,-1.98323 -0.23684,-1.24997 0.90793,-1.59479 6.55436,-1.97421 8.57577,-0.57628 20.94469,-5.30036 25.87283,-9.88165 1.90766,-1.77341 5.9068,-5.3655 8.88695,-7.98244 2.98015,-2.61694 5.93328,-5.69628 6.5625,-6.84296 0.62922,-1.1467 3.80119,-5.39675 7.04881,-9.44458 8.99304,-11.20891 15.50048,-21.79484 23.63513,-38.44824 4.07044,-8.33309 7.84304,-15.4244 8.38357,-15.75846 0.54053,-0.33406 0.98278,-1.2199 0.98278,-1.96853 0,-1.79535 4.06073,-10.98159 8.88099,-20.0907 0.68214,-1.28906 1.9529,-4.03125 2.82392,-6.09375 0.87101,-2.0625 3.02343,-5.93087 4.78313,-8.59638 1.7597,-2.6655 3.19946,-5.10837 3.19946,-5.42858 0,-2.56042 12.62358,-16.475295 23.93781,-26.386482 4.99991,-4.379888 11.7256,-10.637488 14.94598,-13.905778 3.22038,-3.26829 6.65223,-6.199264 7.62634,-6.513275 0.97411,-0.314012 2.61487,-1.930077 3.64612,-3.591257 1.03125,-1.661179 2.83315,-4.509921 4.00423,-6.330537 1.17107,-1.820616 2.41588,-3.943024 2.76624,-4.716461 0.8525,-1.882007 14.60881,-15.505759 20.16192,-19.967649 3.2862,-2.640441 5.78614,-3.78173 9.66743,-4.413426 2.87928,-0.468614 6.58001,-1.52422 8.22386,-2.345792 1.64385,-0.821571 4.78179,-1.740529 6.97319,-2.042128 4.48407,-0.617134 4.62468,-0.900884 2.38251,-4.807644 -1.29051,-2.248577 -1.37605,-3.063176 -0.44012,-4.190908 1.67962,-2.0238028 5.40008,-2.4788775 8.23629,-1.0074333 1.35164,0.7012383 3.88587,1.2749803 5.63162,1.2749803 3.16626,0 3.17408,-0.01108 3.17408,-4.5 0,-7.4515678 2.8273,-8.6726981 8.03125,-3.46875 3.81465,3.8146517 8.15025,4.4537868 9.76356,1.4392995 0.54218,-1.0130727 2.65301,-2.3414645 4.69073,-2.9519815 4.65603,-1.39497748 6.43786,-0.2209272 5.84062,3.8483706 -0.35198,2.3982369 0.20572,3.4090886 3.58517,6.4982094 3.32089,3.035605 4.28631,3.48062 5.67263,2.61485 0.91885,-0.573832 1.9156,-1.907988 2.215,-2.96479 0.52226,-1.8434617 0.59761,-1.8519639 1.85637,-0.209448 0.72161,0.941605 1.87484,1.804841 2.56272,1.918302 1.98525,0.327452 11.9567,10.58094 13.02664,13.395103 0.53371,1.403763 0.74472,4.686373 0.46893,7.294691 -0.65645,6.208189 1.02758,10.835453 4.61453,12.679506 4.04918,2.081682 5.19325,3.828301 4.93337,7.531638 -0.22619,3.223197 -0.3215,3.294325 -5.38652,4.020284 -6.40535,0.918064 -17.58533,4.225139 -20.30263,6.005588 -2.40184,1.573742 -5.01227,6.687729 -5.0041,9.803311 0.003,1.211137 0.636,3.410446 1.40625,4.887355 0.77026,1.476908 1.40048,3.494364 1.40048,4.483236 0,3.559746 -2.59909,8.04179 -5.28978,9.122043 -6.21238,2.494139 -10.20126,5.535849 -13.06074,9.959433 -4.29306,6.64129 -8.71039,10.67321 -13.05573,11.91662 -2.0625,0.59017 -4.70486,2.15819 -5.87191,3.48446 -5.02812,5.71414 -5.60467,9.82753 -6.25116,44.59892 -0.37112,19.96118 -0.70369,22.45312 -5.00465,37.5 -2.18398,7.64063 -8.10788,20.60208 -11.87236,25.97663 -0.80777,1.15325 -1.46867,3.00075 -1.46867,4.10554 0,1.1048 -0.7665,3.01483 -1.70333,4.24452 -6.72205,8.82339 -12.12902,34.01276 -11.05204,51.48792 0.3702,6.007 0.0989,11.51045 -0.82691,16.77642 -0.75782,4.31025 -1.35553,9.77961 -1.32825,12.15414 0.0565,4.91777 -1.46175,13.34499 -2.88249,15.99968 -0.52634,0.98347 -0.95698,3.50286 -0.95698,5.59863 0,2.50349 -1.12549,6.01897 -3.28125,10.24904 -1.80469,3.54119 -3.28125,6.92508 -3.28125,7.51976 0,1.86287 -4.49185,12.23225 -5.91554,13.65594 -0.7467,0.7467 -1.66124,3.38245 -2.03232,5.85721 -0.37108,2.47476 -1.03484,5.17258 -1.47504,5.99516 -0.92206,1.72306 -1.43743,4.20331 -2.9035,13.97316 -1.06469,7.09506 -3.13854,12.17066 -8.29509,20.3017 -1.54881,2.44222 -2.81601,5.21835 -2.81601,6.16919 0,2.37397 -3.12923,8.30439 -5.52524,10.47129 -1.08612,0.98225 -1.97476,2.16005 -1.97476,2.61732 0,0.45728 -0.87601,1.76298 -1.94669,2.90157 -1.07067,1.13861 -2.72544,3.76813 -3.67724,5.84341 -0.95181,2.07528 -2.62193,4.57991 -3.71138,5.56585 -1.08945,0.98594 -1.79499,2.27687 -1.56786,2.86875 0.22712,0.59187 -1.03544,3.14974 -2.80571,5.68415 -1.77025,2.53441 -3.94097,5.66271 -4.82382,6.95177 -6.38092,9.31692 -14.85889,18.58719 -31.75457,34.72212 -7.55828,7.21796 -18.43494,13.96001 -25.65948,15.90537 -2.96587,0.79862 -4.13129,1.77524 -5.63441,4.72157 -1.04229,2.04308 -4.10121,6.89872 -6.79758,10.79033 -5.48236,7.91253 -6.38214,9.48588 -9.6478,16.87011 -1.93741,4.38082 -2.07338,5.25592 -0.8874,5.71103 0.92537,0.3551 1.21793,1.26528 0.86223,2.68249 -1.00432,4.00154 1.8401,7.69284 11.8485,15.37621 1.61053,1.23639 3.58508,3.62538 4.38788,5.30887 1.33545,2.80048 1.32051,3.48659 -0.17552,8.06453 -0.89934,2.75199 -2.03235,5.25041 -2.5178,5.55205 -0.48546,0.30163 1.53667,1.98913 4.49363,3.75 8.88924,5.29355 11.62006,13.37861 8.02086,23.74715 -1.55967,4.49309 -4.11284,7.25368 -5.46142,5.9051 -0.36877,-0.36877 0.095,-3.74455 1.0306,-7.50173 l 1.7011,-6.83123 -2.14775,-4.68164 c -1.21366,-2.64556 -3.54313,-5.68834 -5.35619,-6.99636 C 379.895,586.70532 378.71445,585.03555 382.5,581.25 c 2.61457,-2.61457 3.70236,-2.34758 4.38725,1.07685 0.54755,2.73781 0.68181,2.82679 1.85156,1.22707 0.69366,-0.94863 1.26119,-2.94224 1.26119,-4.43022 0,-2.88527 -0.79645,-3.79261 -11.55728,-13.16636 l -6.25522,-5.44892 -0.16409,4.51142 c -0.0903,2.48127 -0.0666,6.19891 0.0526,8.26141 0.24863,4.30282 4.43921,13.35316 6.89225,14.88511 1.72896,1.07976 2.18816,2.95705 0.91569,3.74348 -0.40758,0.25191 -2.05199,-0.17689 -3.65424,-0.95289 -2.25617,-1.09269 -3.60027,-2.98676 -5.95974,-8.39829 l -3.04657,-6.98741 1.14309,-8.17116 c 1.68215,-12.02456 7.45523,-27.96237 13.10109,-36.16835 1.6985,-2.46868 2.90498,-4.6717 2.68108,-4.8956 -0.2239,-0.2239 -1.72782,0.0534 -3.34205,0.61603 -2.15068,0.74973 -3.58877,2.3166 -5.38173,5.86361 -1.34574,2.66225 -3.72299,7.0868 -5.28278,9.83233 -4.71932,8.30689 -6.30587,20.11415 -5.1838,38.57844 0.14354,2.3621 -0.22067,3.34135 -1.32469,3.56165 -1.91527,0.38219 -2.66966,-1.57468 -3.34864,-8.68622 -0.29581,-3.09828 -0.90281,-5.77386 -1.34889,-5.94573 -0.44608,-0.17188 -0.80811,-1.85938 -0.80449,-3.75 0.007,-3.87668 3.3727,-18.71373 4.59265,-20.24834 0.43797,-0.55091 1.0873,-1.95088 1.44297,-3.11104 0.47988,-1.56535 0.26769,-2.10937 -0.82276,-2.10937 -0.80819,0 -1.46943,0.37934 -1.46943,0.84297 0,0.46363 -2.42578,3.58773 -5.39063,6.94243 -2.96484,3.35471 -7.22394,8.67707 -9.46465,11.82748 -5.56211,7.82022 -13.27793,13.60205 -20.72816,15.5326 -3.24431,0.84069 -6.48668,1.30292 -7.20524,1.02718 -1.77085,-0.67954 -4.79998,2.0065 -6.94989,6.16273 -0.97559,1.88603 -2.1154,3.57353 -2.53291,3.75 -1.03896,0.43914 -4.91478,7.19455 -4.92126,8.57757 -0.009,2.0081 -26.60257,29.71204 -28.52074,29.71204 -0.68444,0 -1.76845,0.63141 -2.40892,1.40312 -1.52319,1.83531 -13.10048,7.97188 -15.03982,7.97188 -0.82765,0 -3.79459,1.21617 -6.59318,2.70262 -4.9297,2.61834 -13.94154,4.53796 -15.2344,3.24509 z m 89.80101,-67.80877 c 6.5899,-2.82476 12.0248,-6.91639 15.57687,-11.72693 1.76311,-2.38779 4.15488,-5.53618 5.31504,-6.99643 1.16015,-1.46025 2.10937,-2.96216 2.10937,-3.33758 0,-1.32063 -2.95286,1.78703 -4.4041,4.63497 -1.77688,3.48699 -6.72684,7.94651 -8.8786,7.99893 -2.34876,0.0572 -4.5298,-0.96933 -4.5298,-2.13205 0,-0.56762 1.56218,-2.63187 3.47152,-4.5872 1.90933,-1.95533 2.91527,-3.55515 2.23544,-3.55515 -2.03959,0 -17.89446,18.39806 -17.89446,20.76481 0,1.28578 2.35209,0.92841 6.99872,-1.06337 z m 31.96773,-32.60999 c -0.75987,-0.75987 -5.84758,3.69994 -7.56132,6.62812 -1.53535,2.6234 -1.14772,2.41996 3.09379,-1.6237 2.66699,-2.54258 4.67738,-4.79457 4.46753,-5.00442 z M 605.59589,35.941208 c 1.10207,-2.491414 1.67855,-5.174983 1.34049,-6.240118 C 605.78488,26.073048 596.14366,18.75 592.51863,18.75 c -1.58424,0 -1.89363,0.612702 -1.89363,3.75 0,2.623588 -0.40196,3.75 -1.33821,3.75 -1.68062,0 -5.22429,-4.415588 -5.22429,-6.509746 0,-0.863162 -0.6194,-2.3883 -1.37644,-3.389195 -1.34548,-1.778886 -1.3771,-1.773618 -1.40625,0.234238 -0.0164,1.129725 0.39206,2.314779 0.90769,2.633453 1.08082,0.667985 1.29027,6.100953 0.23437,6.079394 -1.72823,-0.03529 -3.05867,-1.67653 -2.51261,-3.099569 0.37428,-0.975353 0.0356,-1.773481 -0.90574,-2.134724 -1.71662,-0.658729 -1.95771,-3.400961 -0.53304,-6.062983 0.66898,-1.250001 0.66898,-1.813368 0,-1.813368 -0.53376,0 -0.97048,-0.682016 -0.97048,-1.515592 0,-1.1309939 -0.53527,-1.3577757 -2.10938,-0.8936827 -1.16015,0.3420497 -4.58835,0.8765467 -7.61823,1.1877717 -4.53514,0.465842 -5.66191,0.292389 -6.37471,-0.9813173 C 560.31164,8.0440487 558.75,7.9727806 558.75,9.8638491 c 0,0.7844919 1.05469,1.9068969 2.34375,2.4942329 2.63373,1.200006 2.8391,1.771572 1.21875,3.391918 -1.55058,1.55058 -8.25,1.47752 -8.25,-0.08997 0,-0.896275 -1.16809,-1.08071 -4.45313,-0.703125 -3.10584,0.356988 -4.45312,0.937301 -4.45312,1.918095 0,0.929737 0.79418,1.336696 2.34375,1.200986 1.28906,-0.112894 2.97656,-0.251378 3.75,-0.307741 0.77344,-0.05636 5.91563,0.652949 11.4271,1.576246 7.8542,1.315761 10.11319,2.031846 10.44794,3.311925 0.2349,0.89826 1.63177,1.930085 3.10415,2.292944 4.20253,1.035686 6.75975,3.10775 7.07482,5.732593 0.42617,3.550531 4.20064,5.813614 11.56946,6.936791 3.59302,0.54766 6.93356,1.377799 7.4234,1.844751 1.25791,1.199117 1.16811,1.294989 3.29902,-3.522287 z M 119.30933,633.52964 c 1.47615,-9.09637 13.49109,-31.64991 16.86254,-31.65309 2.77568,-0.003 1.84448,2.76934 -3.00205,8.93643 -4.94319,6.2901 -6.60591,9.52048 -9.84563,19.12841 -2.28162,6.76652 -4.91213,9.11751 -4.01486,3.58825 z M 248.4375,621.09375 c 0,-0.77344 0.34124,-1.40625 0.75832,-1.40625 0.41707,0 1.57723,-0.6641 2.57812,-1.47578 1.00089,-0.81166 1.26753,-1.19323 0.59251,-0.84791 -2.07696,1.06252 -14.18793,-0.56922 -15.73929,-2.12059 -2.48857,-2.48856 -0.15275,-3.27651 5.96629,-2.01265 4.58979,0.94801 6.9547,0.93234 12.54682,-0.0831 3.79004,-0.68823 7.73473,-1.98299 8.76598,-2.87723 1.76351,-1.52918 11.06875,-6.52019 12.15634,-6.52019 0.27495,0 0.49991,0.76104 0.49991,1.69121 0,2.32949 -11.18467,10.64698 -19.07177,14.18274 -7.18129,3.21934 -9.05323,3.52325 -9.05323,1.4698 z m 11.25,-5.7253 c 0,-0.20264 -0.63281,-0.36845 -1.40625,-0.36845 -0.77344,0 -1.40625,0.40864 -1.40625,0.90808 0,0.49944 0.63281,0.66524 1.40625,0.36845 0.77344,-0.29681 1.40625,-0.70543 1.40625,-0.90808 z m -7.5,-10.6659 c 0,-0.48762 0.84375,-1.33814 1.875,-1.89005 2.42061,-1.29547 2.38359,-2.46082 -0.0988,-3.10997 -2.69852,-0.70568 -1.69763,-3.06549 1.13116,-2.66691 1.23688,0.17429 5.09653,0.5253 8.57699,0.78006 7.66216,0.56082 8.26026,2.07953 1.875,4.76101 -5.10821,2.1452 -13.35937,3.45819 -13.35937,2.12586 z M 137.5,599.375 c -1.17182,-1.17181 1.9367,-4.92186 13.85863,-16.71875 13.50519,-13.36354 17.35535,-18.04853 15.34859,-18.67661 -0.68116,-0.21319 -5.07925,-0.60194 -9.77354,-0.86389 -8.87066,-0.49499 -13.54201,-1.90064 -16.83649,-5.06623 -1.06374,-1.02212 -2.85671,-2.35218 -3.98438,-2.9557 -1.12767,-0.60351 -2.05031,-1.68174 -2.05031,-2.39607 0,-0.71433 -1.22188,-1.56714 -2.71529,-1.89515 -1.49341,-0.32801 -3.48154,-1.44307 -4.41806,-2.47792 -0.93653,-1.03485 -3.72553,-2.75171 -6.19779,-3.81524 -4.63853,-1.99545 -10.10636,-7.25842 -10.10636,-9.72773 0,-3.13242 2.92921,-2.48286 6.23858,1.3834 1.83584,2.14476 5.08552,4.77791 7.22153,5.85145 2.136,1.07354 4.55167,2.53737 5.36816,3.25295 0.81649,0.71557 3.76961,2.07738 6.5625,3.02623 3.43523,1.16708 5.18653,2.3031 5.41352,3.51159 0.85106,4.531 7.71394,7.43554 18.38501,7.781 3.56471,0.1154 6.92805,0.48903 7.47412,0.8303 0.54605,0.34126 2.36641,0.67041 4.04523,0.73145 3.78498,0.13761 4.07603,0.42981 4.80928,4.82838 0.9309,5.58429 0.27424,8.70904 -1.8302,8.70904 -1.33655,0 -1.83004,-0.67724 -1.87863,-2.57813 -0.0362,-1.41796 -0.36669,-3.34073 -0.73435,-4.27281 -0.59748,-1.51472 -0.93894,-1.39114 -3.21536,1.16376 -1.40079,1.57215 -2.54689,3.28561 -2.54689,3.80769 0,0.52207 -3.375,4.27025 -7.5,8.32927 -4.125,4.059 -7.5,7.66709 -7.5,8.01796 0,1.03249 -5.94263,6.15726 -7.13988,6.15726 -0.60335,0 -1.32926,0.60521 -1.61311,1.34493 -0.6169,1.6076 -3.89359,3.50848 -4.68451,2.71757 z m 124.42037,-4.58038 c 0.30716,-0.80044 -0.10594,-2.4694 -0.918,-3.70876 -2.29702,-3.50569 0.67448,-6.05568 3.3292,-2.85695 0.618,0.74466 2.67356,1.48294 4.56791,1.64062 7.00924,0.58349 2.38429,6.06022 -5.32791,6.30914 -1.62642,0.0525 -2.06226,-0.31282 -1.6512,-1.38405 z m 6.6229,-9.8763 c -0.34645,-0.56056 -0.26587,-1.33319 0.17904,-1.71696 1.224,-1.05579 8.20117,-2.88886 10.99583,-2.88886 1.35815,0 2.46936,-0.40544 2.46936,-0.90098 0,-1.03492 3.21807,-4.24864 6.37627,-6.36765 1.58451,-1.06315 2.43465,-1.17045 3.20106,-0.40404 0.76642,0.76642 0.0825,1.92384 -2.57509,4.35812 -1.99025,1.823 -4.3283,3.31455 -5.19565,3.31455 -0.86736,0 -2.08587,0.61315 -2.70783,1.36255 -0.62194,0.74941 -3.37525,2.01504 -6.11845,2.8125 -5.94008,1.72683 -5.82803,1.71955 -6.62454,0.43077 z m -48.69952,-1.66446 c -3.73373,-1.31906 -7.03125,-3.26159 -7.03125,-4.14203 0,-0.8648 -4.24878,-0.64471 -15.72005,0.81432 -3.46623,0.44087 -6.12174,0.19774 -8.90625,-0.8154 -2.18209,-0.79395 -5.54948,-1.71123 -7.48308,-2.03838 -2.99678,-0.50705 -3.51562,-0.9506 -3.51562,-3.00544 0,-2.0732 0.29526,-2.31694 2.10937,-1.74135 1.16016,0.36809 5.46479,1.32805 9.56583,2.13325 6.81013,1.3371 8.61528,1.32983 20.82555,-0.0839 21.31456,-2.46788 37.63471,-8.60452 51.76347,-19.46389 8.31393,-6.39008 12.07558,-6.24893 5.03265,0.18884 -7.90268,7.22366 -23.16796,14.93674 -38.68577,19.54674 -5.28271,1.56934 -9.81267,2.85338 -10.06656,2.85338 -0.25389,0 0.10148,0.6785 0.78971,1.50777 1.02707,1.23754 2.38508,1.39606 7.57711,0.88445 3.47917,-0.34284 7.62448,-1.27121 9.2118,-2.06307 1.58732,-0.79186 3.47186,-1.21494 4.18789,-0.94017 0.71602,0.27476 1.82647,-0.13254 2.46765,-0.90512 1.27357,-1.53455 6.86816,-4.10886 8.92954,-4.10886 2.95169,0 0.95448,2.49265 -3.63135,4.53217 -11.48596,5.10829 -23.70513,8.15931 -27.42064,6.84669 z m 38.50315,-13.14763 c -0.59888,-0.96902 0.69813,-2.1208 4.63909,-4.1196 1.55635,-0.78936 5.47464,-3.79522 8.70731,-6.67967 3.23266,-2.88445 6.18789,-5.24446 6.56716,-5.24446 0.37928,0 3.00005,-2.09895 5.82394,-4.66433 4.82925,-4.38717 5.44074,-4.66656 10.2906,-4.70186 2.83594,-0.0206 5.7508,-0.4139 6.47749,-0.87393 1.49293,-0.9451 3.83501,-0.32629 3.83501,1.01326 0,1.48504 -6.45589,3.68411 -10.1719,3.46484 -3.0814,-0.18181 -4.56966,0.63824 -12.36862,6.81523 -11.18153,8.85608 -20.99442,15.82179 -22.28883,15.82179 -0.54862,0 -1.22868,-0.37407 -1.51125,-0.83127 z m 46.72985,-3.04736 c -0.68953,-1.1157 3.00093,-4.50171 4.94604,-4.53802 2.34913,-0.0439 2.07471,1.79056 -0.54711,3.65746 -3.16161,2.25126 -3.50883,2.32077 -4.39893,0.88056 z M 307.5,541.82228 c 0,-1.38323 1.19159,-2.45481 4.2188,-3.79389 2.46537,-1.09055 7.80596,-5.35233 12.84959,-10.25394 5.0199,-4.87857 8.97864,-8.03992 9.46222,-7.55634 0.48359,0.48359 0.20231,1.79165 -0.67234,3.12653 -3.16988,4.83783 -22.21812,20.40536 -24.96777,20.40536 -0.48978,0 -0.8905,-0.86747 -0.8905,-1.92772 z M 101.83594,528.93961 c -0.25422,-0.41134 -0.1231,-1.29659 0.29138,-1.96724 1.03058,-1.66751 4.18539,-0.91853 4.57128,1.08527 0.23094,1.19922 -0.30893,1.62986 -2.04328,1.62986 -1.29644,0 -2.56516,-0.33655 -2.81938,-0.74789 z m -6.692534,-5.87307 c -0.660356,-3.00658 1.455356,-7.29738 4.019682,-8.15216 1.566482,-0.52215 2.462742,4.09372 1.469992,7.57069 -1.223486,4.28509 -4.597717,4.64249 -5.489674,0.58147 z m -7.008303,-6.96061 c -0.636338,-0.76675 -0.905088,-2.3977 -0.597222,-3.62433 0.435402,-1.73478 -0.711402,-3.97644 -5.162062,-10.0903 -3.147001,-4.32303 -6.288987,-9.17949 -6.982192,-10.79215 -5.234512,-12.17741 -7.370809,-34.31819 -4.420831,-45.8179 1.405427,-5.47868 2.032515,-6.61207 3.797021,-6.86263 2.370646,-0.33663 3.79013,1.98085 2.3445,3.82769 -1.604564,2.04989 -3.177252,12.79877 -2.540181,17.36142 2.447219,17.52685 4.2732,25.92585 6.425505,29.55554 1.281867,2.16176 3.416579,5.93439 4.743806,8.38361 1.327226,2.44921 2.827907,4.45312 3.334846,4.45312 0.506939,0 0.921707,0.63281 0.921707,1.40625 0,0.77344 0.35435,1.40625 0.787444,1.40625 0.433095,0 1.364621,1.79297 2.07006,3.98437 0.705438,2.19141 1.678187,4.25821 2.161665,4.59289 0.483478,0.33468 0.619875,1.2839 0.303112,2.10938 -0.734437,1.9139 -5.627068,1.9866 -7.187178,0.10679 z M 339.375,515.71966 c 0,-0.4312 1.74206,-3.79297 3.87125,-7.47058 2.62143,-4.52786 4.43742,-6.68658 5.625,-6.68658 2.80304,0 2.0638,2.41073 -2.56834,8.3756 -4.03177,5.19176 -6.92791,7.60868 -6.92791,5.78156 z M 170.85937,449.97079 c -1.16015,-0.46633 -2.10937,-1.28334 -2.10937,-1.81558 0,-0.53224 -1.45304,-0.96771 -3.22898,-0.96771 -2.01929,0 -4.16964,-0.80913 -5.73989,-2.1598 -2.11825,-1.82204 -2.40799,-2.6284 -1.85279,-5.15625 0.77007,-3.50605 3.32166,-4.09026 3.32166,-0.76052 0,2.72389 3.54782,5.26407 7.35222,5.26407 1.50189,0 3.3,0.68597 3.99581,1.52437 2.14825,2.58848 11.78642,1.10955 25.21447,-3.86903 6.44531,-2.38966 13.40625,-5.20311 15.46875,-6.25209 9.78544,-4.97688 12.69386,-6.69505 14.70361,-8.68628 2.8236,-2.79756 6.39014,-3.97532 6.39014,-2.11017 0,1.62007 -4.70781,5.3516 -10.41163,8.2525 -2.26579,1.15237 -5.17431,2.80512 -6.46337,3.6728 -1.28906,0.86767 -4.76016,2.47161 -7.71355,3.56429 -2.95339,1.09269 -6.11745,2.40634 -7.03125,2.91923 -0.91379,0.51287 -6.12817,2.42074 -11.58749,4.23969 -9.87986,3.2918 -16.14518,4.01386 -20.30834,2.34048 z M 125.625,445.53146 c -1.28906,-0.88208 -2.96655,-2.45236 -3.72775,-3.48949 -2.8235,-3.84703 -5.99551,-6.10447 -8.57759,-6.10447 -5.55286,0 -8.17719,-11.83939 -6.13032,-27.65625 0.94279,-7.28525 1.34797,-8.47424 2.96691,-8.70652 1.77092,-0.25408 1.875,0.26632 1.875,9.375 0,11.24518 2.3152,18.87975 7.53163,24.83615 l 3.11587,3.55787 -0.52955,-5.625 c -0.29125,-3.09375 -0.89397,-6.33555 -1.33938,-7.20399 -4.54408,-8.86003 9.63219,-62.90769 19.90087,-75.87295 3.40555,-4.29985 7.41431,-5.10306 7.41431,-1.48556 0,1.18594 -0.37983,2.55703 -0.84407,3.04687 -1.42045,1.4988 -6.39811,18.2835 -7.63176,25.73438 -1.82752,11.03755 -1.62698,22.94113 0.50146,29.76562 1.00509,3.22266 2.1558,5.85938 2.55715,5.85938 0.40135,0 0.73506,0.52734 0.7416,1.17187 0.007,0.64454 1.27215,3.65711 2.8125,6.69462 3.14375,6.19936 3.14271,6.19601 1.90106,6.19601 -1.02181,0 -5.66294,-4.77503 -5.66294,-5.82632 0,-0.37908 -1.31937,-3.54744 -2.93194,-7.04083 -1.61256,-3.49338 -3.88579,-10.99223 -5.05159,-16.6641 -1.39799,-6.80145 -2.23509,-9.37956 -2.45869,-7.5723 -0.4153,3.35659 -2.65275,4.43084 -2.75411,1.3223 -0.059,-1.80917 -0.28986,-1.62 -1.33492,1.09375 -0.69498,1.80469 -1.2957,4.56797 -1.33493,6.14063 -0.0392,1.57265 -0.54023,3.32828 -1.11335,3.9014 -1.44788,1.44788 -1.56933,21.55756 -0.18281,30.27047 0.72187,4.53626 0.79115,7.14677 0.19524,7.3568 -1.47356,0.51935 1.01265,2.92346 4.55317,4.40278 1.79649,0.75062 3.03307,1.85942 2.81483,2.52395 -0.59141,1.80079 -4.64292,1.79964 -7.2759,-0.002 z m -28.6941,-7.6986 c -3.101981,-1.25358 -7.837342,-7.59596 -8.957828,-11.9978 -0.561224,-2.20478 -2.022258,-4.79675 -3.24674,-5.75993 C 83.236605,418.90331 82.5,417.36045 82.5,415.41195 82.5,413.125 82.097563,412.5 80.625,412.5 c -1.653591,0 -1.879093,-0.63655 -1.909659,-5.39063 l -0.03466,-5.39062 -5.355965,5.86055 c -5.043601,5.51876 -8.637216,7.43309 -8.637216,4.60108 0,-0.69141 1.925901,-3.29599 4.27978,-5.78795 3.557362,-3.76604 4.032106,-4.66944 2.8125,-5.35197 -0.807004,-0.45162 -1.469633,-1.53845 -1.472508,-2.41517 -0.0029,-0.87672 -0.449054,-3.19227 -0.991508,-5.14567 l -0.986278,-3.55163 -3.7143,2.94178 c -3.69229,2.92435 -6.490186,3.14675 -6.490186,0.51589 0,-0.74838 2.374594,-3.47712 5.276874,-6.06389 4.702963,-4.19168 5.207169,-4.99004 4.635961,-7.34061 -2.463216,-10.13633 -2.550702,-13.27649 -0.566858,-20.34648 2.190646,-7.80699 1.609005,-13.01495 -1.937783,-17.35072 -1.603675,-1.96042 -2.139652,-2.11001 -4.198635,-1.17188 -3.020057,1.37603 -5.615213,1.36381 -8.193066,-0.0386 -1.126259,-0.6127 -3.419784,-1.00217 -5.096723,-0.86548 -7.886501,0.64284 -12.41977,-3.71456 -12.41977,-11.93793 0,-2.59704 -0.421875,-4.98263 -0.9375,-5.3013 -1.558627,-0.96328 -1.139203,-6.09375 0.498173,-6.09375 0.78962,0 1.694534,0.73828 2.010917,1.64062 0.316385,0.90235 1.463301,2.36023 2.548703,3.23973 1.688427,1.36814 1.804201,1.87408 0.801582,3.50291 -2.666529,4.33198 -0.970802,9.59978 3.603525,11.1944 3.224843,1.12419 4.5996,0.72017 4.5996,-1.35174 0,-2.08059 2.247337,-1.60461 4.6875,0.99283 2.656522,2.82773 5.616298,3.04828 6.29086,0.46875 0.61452,-2.34993 1.820728,-2.34993 7.30289,0 2.405809,1.03125 5.85528,1.875 7.665492,1.875 2.463549,0 3.410344,0.45524 3.764659,1.81015 0.740302,2.83092 3.100831,3.11799 6.516519,0.7925 3.538367,-2.40902 3.976863,-3.54015 1.372382,-3.54015 -0.976084,0 -2.034702,-0.67756 -2.352485,-1.50569 -0.393222,-1.02472 -1.260369,-1.33437 -2.714615,-0.96939 -1.175256,0.29498 -3.328923,-0.0821 -4.785927,-0.83805 -1.457006,-0.7559 -4.053518,-1.37437 -5.770028,-1.37437 -1.99208,0 -3.56758,-0.63769 -4.355791,-1.76302 -0.679174,-0.96965 -2.059354,-1.9218 -3.067065,-2.11586 -1.00771,-0.19407 -2.833852,-1.82649 -4.058093,-3.62761 -1.768255,-2.60148 -2.143385,-4.16171 -1.824583,-7.58874 0.589844,-6.34068 3.840838,-12.42178 7.502343,-14.03339 2.221223,-0.97768 3.064176,-1.97402 3.116732,-3.68388 0.134909,-4.38912 1.421533,-6.44935 6.148459,-9.84531 4.007362,-2.879 5.172216,-3.28666 7.688695,-2.69074 1.631193,0.38627 3.598619,0.59122 4.372056,0.45544 2.650045,-0.4652 8.4375,-5.04859 8.4375,-6.6821 0,-4.161 6.76382,-5.48306 12.89063,-2.51962 5.09019,2.46206 5.43795,4.88854 0.58783,4.10148 -2.74995,-0.44626 -4.04387,-0.0691 -6.79688,1.98137 -4.423592,3.29468 -4.775155,3.84234 -4.792227,7.4651 -0.01303,2.76468 -0.277725,3.04688 -2.858019,3.04688 -1.564016,0 -4.83523,1.0092 -7.269362,2.24267 -3.737725,1.89405 -4.89875,3.19318 -7.468834,8.35728 -1.673726,3.36303 -3.043138,6.75862 -3.043138,7.54575 0,0.78713 -0.421875,1.69188 -0.9375,2.01055 -2.434983,1.5049 -0.09172,12.97696 2.987227,14.62477 1.88758,1.01019 1.948549,0.88326 1.497567,-3.11784 -0.388976,-3.45098 -0.03628,-4.80403 2.043332,-7.83891 2.271223,-3.31453 2.890919,-3.66022 6.430163,-3.5871 3.813761,0.0788 3.916711,4.8e-4 3.916711,-2.97884 0,-3.39711 2.010656,-5.44092 8.075222,-8.20837 2.224668,-1.01518 4.556228,-3.13584 5.987278,-5.44566 2.86834,-4.62972 14.06979,-15.99492 19.34212,-19.62485 6.5843,-4.53323 18.35345,-10.22945 21.13538,-10.22945 2.70173,0 3.86787,2.52895 1.47562,3.20013 -6.90316,1.93678 -9.88053,3.16851 -12.02914,4.97645 -1.39612,1.17476 -2.90691,2.13592 -3.35731,2.13592 -1.73893,0 -7.83373,4.83894 -7.26133,5.7651 0.37126,0.60071 2.21779,0.73503 4.79393,0.34871 3.60683,-0.54088 4.14602,-0.41031 3.87354,0.93793 -0.17411,0.86145 -2.00406,2.14262 -4.06656,2.84705 -2.0625,0.70443 -4.38281,2.04098 -5.15625,2.97011 -0.77344,0.92914 -2.70368,2.52703 -4.28944,3.55085 -2.97416,1.92023 -9.77306,9.06398 -9.77306,10.26877 0,0.374 -1.64811,2.55236 -3.66246,4.84079 -3.91483,4.44748 -11.33754,17.86916 -11.33754,20.50044 0,0.87296 -0.620625,2.70698 -1.379166,4.0756 -0.758546,1.36862 -1.816261,4.23222 -2.350481,6.36357 -1.237631,4.93769 -3.230913,6.75649 -5.708758,5.20905 -0.982385,-0.6135 -3.413993,-1.11547 -5.403574,-1.11547 -2.426802,0 -4.175912,-0.61713 -5.314271,-1.875 -0.933268,-1.03125 -2.636809,-1.875 -3.785646,-1.875 -2.047661,0 -2.061767,0.0785 -0.716369,3.98349 1.414621,4.10597 1.313116,7.13396 -0.587718,17.53231 -1.120331,6.12867 -0.643917,12.70419 0.993785,13.71635 2.683138,1.65827 8.943605,-6.77414 11.471294,-15.45103 0.803425,-2.75795 1.861294,-4.431 2.934795,-4.64148 1.48125,-0.29043 1.603151,0.15035 1.037093,3.75 -0.352799,2.24351 -1.683221,6.08302 -2.956491,8.53223 -1.273271,2.44922 -2.120308,4.45313 -1.882304,4.45313 0.676296,0 6.360358,-8.49606 8.467334,-12.65625 1.229353,-2.42735 2.643222,-3.85567 4.008602,-4.04958 2.464838,-0.35006 2.897953,2.0779 0.792834,4.44451 -3.540375,3.98014 -9.933459,14.63399 -9.933459,16.55377 0,1.19303 -1.686158,5.42757 -3.747017,9.41009 -2.060859,3.98251 -3.589847,7.3981 -3.39775,7.59019 0.192096,0.1921 1.890419,-1.7959 3.774049,-4.41778 3.385427,-4.71227 5.672716,-6.44795 6.891286,-5.22938 0.344962,0.34496 0.11583,1.44605 -0.509182,2.44685 -1.479053,2.36834 -1.433749,2.78258 0.304318,2.78258 1.251879,0 1.362316,1.56662 0.842616,11.95312 -0.564239,11.27666 -0.454789,12.40411 1.933961,19.92188 2.781035,8.75234 4.938972,11.78456 9.025449,12.68211 3.19755,0.7023 3.67023,3.28287 0.5854,3.19596 -1.160161,-0.0327 -2.998289,-0.41865 -4.08473,-0.85771 z M 77.72557,387.6821 c 3.670958,-7.08906 3.651605,-8.01497 -0.09104,-4.35584 -1.644761,1.60805 -3.332261,2.92374 -3.75,2.92374 -0.897585,0 -1.009715,3.88217 -0.174959,6.05751 0.72327,1.88481 0.528813,2.10877 4.016002,-4.62541 z M 91.875,329.43663 c 0,-1.30481 0.456055,-3.22454 1.013456,-4.26606 1.643213,-3.07037 0.407051,-2.93704 -2.754964,0.29714 -4.013022,4.10462 -4.020496,9.42506 -0.01023,7.27882 1.002179,-0.53635 1.751737,-1.95264 1.751737,-3.3099 z m -20.650609,-2.29698 c -0.565993,-1.05757 -1.029079,-4.61373 -1.029079,-7.90259 0,-4.05607 -0.433538,-6.33954 -1.347656,-7.09819 C 68.106445,311.52372 67.5,310.19317 67.5,309.18208 c 0,-2.31506 -2.217557,-1.70922 -2.691213,0.73525 -0.191105,0.98627 -1.140323,2.80117 -2.109375,4.03312 -0.969051,1.23195 -1.761912,3.31707 -1.761912,4.63359 0,3.059 3.733203,8.58869 5.804047,8.59706 0.871913,0.004 1.846029,0.42827 2.164703,0.9439 0.318674,0.51562 1.202165,0.9375 1.963313,0.9375 1.104876,0 1.176419,-0.38769 0.354828,-1.92285 z m 16.449282,-5.24482 c 1.867965,-0.7168 1.767725,-2.20733 -0.148445,-2.20733 -2.195875,0 -4.035814,2.8161 -3.981437,6.09375 l 0.04666,2.8125 1.347197,-3.08299 c 0.740959,-1.69563 1.972169,-3.32281 2.736025,-3.61593 z m 11.58248,-11.46348 c 2.358717,-2.35872 3.024537,-3.47252 1.900047,-3.17847 -2.849491,0.74517 -8.192885,6.80962 -5.99995,6.80962 0.257812,0 2.102766,-1.63402 4.099903,-3.63115 z m -24.713504,-4.10323 c 1.002053,-1.67578 2.464105,-4.3125 3.249008,-5.85937 0.977275,-1.926 3.270071,-3.699 7.274128,-5.625 6.524877,-3.13855 8.207669,-5.73836 2.428243,-3.75149 -2.215101,0.76151 -4.423557,0.90272 -6.190928,0.39585 -2.272729,-0.65182 -3.297618,-0.34899 -5.9315,1.75259 -2.523691,2.01366 -3.186191,3.22106 -3.19439,5.8218 -0.0057,1.80469 -0.271839,4.86328 -0.591442,6.79687 -0.714776,4.32438 0.533076,4.5222 2.956881,0.46875 z m 37.822271,-8.22091 c 1.15089,-1.55667 4.39428,-4.35858 7.20755,-6.22648 2.81327,-1.86791 5.11503,-3.75834 5.11503,-4.20096 0,-1.10535 -0.62099,-1.01659 -3.57496,0.51096 -2.39921,1.24068 -12.36254,11.09067 -12.36254,12.2219 0,1.35461 1.71987,0.25776 3.61492,-2.30542 z m -12.07957,-16.82059 c 0.7585,-0.47969 1.06487,-1.18641 0.6808,-1.57046 -0.38406,-0.38407 -1.411459,0.0149 -2.283119,0.88652 -1.694418,1.69442 -0.68009,2.12738 1.602319,0.68394 z M 182.5,436.25 c -1.49669,-1.49668 -0.33373,-2.1875 3.68259,-2.1875 4.77719,0 16.1137,-3.15455 20.51031,-5.70729 1.56109,-0.9064 4.82755,-1.93719 7.25878,-2.29064 3.62653,-0.52724 4.73519,-1.17165 6.17289,-3.58799 1.23308,-2.07243 3.2412,-3.50101 6.77582,-4.82033 2.76285,-1.03125 6.86617,-3.45703 9.11851,-5.39063 2.25232,-1.93359 4.49135,-3.51562 4.97562,-3.51562 4.04369,0 -6.15832,9.60186 -11.86127,11.16352 -2.25519,0.61754 -5.25529,2.62986 -7.80089,5.23246 -3.29362,3.36736 -4.78346,4.22902 -7.31218,4.22902 -1.74669,0 -4.50125,0.68542 -6.12126,1.52316 -8.54806,4.42037 -23.23556,7.51519 -25.39892,5.35184 z m -11.40625,-5.65775 c -3.10471,-0.41596 -7.48612,-2.12678 -12.97203,-5.06524 -4.36104,-2.33593 -5.47428,-1.66522 -2.49672,1.50424 2.44492,2.60249 2.08588,3.77209 -0.86994,2.83394 -2.3592,-0.74878 -7.829,-11.63149 -9.88719,-19.67153 -1.85011,-7.22725 -1.80685,-8.00616 0.44463,-8.00616 1.36794,0 1.875,0.625 1.875,2.31112 0,1.27113 1.17869,3.69691 2.61932,5.39063 1.44063,1.69372 3.40548,4.34512 4.36633,5.892 0.96085,1.54687 2.3134,3.14987 3.00567,3.56221 0.69228,0.41234 1.25868,1.31642 1.25868,2.00907 0,1.05999 1.88674,2.39747 3.382,2.39747 0.22888,0 -0.25803,-1.30371 -1.082,-2.89712 -0.82399,-1.59341 -1.26994,-3.49185 -0.99101,-4.21875 0.27894,-0.7269 0.17972,-1.32163 -0.2205,-1.32163 -0.40021,0 -1.50507,-1.76207 -2.45525,-3.9157 -1.23409,-2.79713 -1.85776,-7.076 -2.18323,-14.97868 -0.51641,-12.53871 0.76366,-19.54312 3.57152,-19.54312 2.36206,0 2.88996,2.16031 2.2788,9.32551 -0.40724,4.77446 -0.14241,7.28113 1.09634,10.37706 l 1.63327,4.08196 1.04089,-3.09144 c 0.77791,-2.31042 0.74652,-4.78199 -0.12426,-9.7829 -2.44152,-14.02184 1.30048,-32.10158 6.49146,-31.3639 2.53159,0.35976 3.33006,3.94109 1.38994,6.23415 -4.01628,4.74684 -5.80941,18.44118 -3.61387,27.59955 0.54928,2.29124 0.49041,4.70056 -0.16722,6.84331 -0.74816,2.43773 -0.72343,4.11327 0.0941,6.37406 1.54307,4.26729 1.39643,5.27764 -0.76596,5.27764 -1.03125,0 -1.875,0.42187 -1.875,0.9375 0,1.42382 -2.43156,1.11988 -3.75,-0.46875 -2.10982,-2.54218 -2.74373,-1.47065 -1.24791,2.10937 0.80791,1.9336 1.47291,3.72657 1.47779,3.98438 0.0262,1.39007 1.33633,3.73951 4.28087,7.67714 2.61626,3.49861 4.02228,4.52008 6.88825,5.00428 3.77213,0.6373 4.62849,1.72369 2.11807,2.68703 -0.8156,0.31298 -1.55389,0.50584 -1.64062,0.42858 -0.0867,-0.0772 -1.42333,-0.31003 -2.9702,-0.51728 z m 71.71875,-13.88514 c 0,-0.77984 2.23313,-2.84641 4.96252,-4.59238 2.72938,-1.74597 5.52322,-3.8501 6.20853,-4.67585 1.34963,-1.6262 4.76645,-2.06203 4.76645,-0.60799 0,2.38739 -2.44655,5.77684 -4.55107,6.30503 -1.29504,0.32505 -3.81284,1.58055 -5.5951,2.79003 -3.73337,2.53353 -5.79133,2.81112 -5.79133,0.78116 z m -53.4375,-3.63806 c 0,-1.41308 1.96313,-2.44405 4.65388,-2.44405 0.92842,0 3.37554,-1.6875 5.43804,-3.75 2.0625,-2.0625 4.35728,-3.75 5.09953,-3.75 0.74224,0 3.34599,-0.68026 5.78611,-1.51169 2.4401,-0.83143 4.72944,-1.21881 5.08741,-0.86085 0.96939,0.96939 -2.52763,3.21089 -6.80728,4.36327 -2.07295,0.55819 -4.78022,2.02613 -6.01618,3.26208 -1.23596,1.23596 -2.68185,2.24719 -3.2131,2.24719 -0.53125,0 -0.75126,0.21466 -0.4889,0.47701 0.66886,0.66886 10.9428,-2.72907 14.54059,-4.80906 1.6425,-0.94957 3.26677,-1.44608 3.60951,-1.10334 1.07319,1.07319 -0.41068,2.45383 -3.32536,3.094 -1.54096,0.33845 -2.80175,1.00373 -2.80175,1.47838 0,0.47465 -0.58674,0.86301 -1.30388,0.86301 -0.71712,0 -3.1429,0.83449 -5.39062,1.85441 -4.96153,2.25135 -14.868,2.64423 -14.868,0.58964 z m -60.29688,-1.17843 c -0.35234,-0.35234 -0.64062,-2.46874 -0.64062,-4.70312 0,-2.98611 0.3726,-4.0625 1.40625,-4.0625 1.31954,0 1.94112,2.83475 1.43898,6.5625 -0.24979,1.85436 -1.40197,3.00576 -2.20461,2.20312 z M 243.75,406.13282 c 0,-0.40821 1.37109,-2.2326 3.04687,-4.05422 1.67579,-1.82162 3.9933,-4.44076 5.15006,-5.82032 1.15674,-1.37955 2.76812,-2.50828 3.58083,-2.50828 2.8358,0 0.89837,3.45085 -4.658,8.2966 -5.32505,4.64399 -7.11976,5.67403 -7.11976,4.08622 z m -23.77653,-3.47657 c 0.2968,-0.77344 1.11407,-1.40625 1.81615,-1.40625 0.74954,0 1.05375,0.58056 0.73691,1.40625 -0.2968,0.77344 -1.11407,1.40625 -1.81615,1.40625 -0.74954,0 -1.05375,-0.58056 -0.73691,-1.40625 z M 129.0625,401.5625 c -1.22721,-1.22721 -0.63771,-5 0.78125,-5 0.9375,0 1.40625,0.9375 1.40625,2.8125 0,2.68795 -0.84353,3.53148 -2.1875,2.1875 z m 58.90625,-1.25 c -1.23726,-2.00192 0.71303,-2.98876 4.71935,-2.38798 3.39517,0.50914 4.32889,0.28217 5.93611,-1.44297 1.47942,-1.58797 2.55612,-1.91736 4.80032,-1.46852 1.8161,0.36322 4.53827,-0.0532 7.31242,-1.11888 5.07307,-1.94863 15.20055,-8.24459 15.20055,-9.44975 0,-0.44576 -2.44351,-0.78746 -5.43003,-0.75933 -5.64532,0.0532 -9.79385,-1.72317 -10.92823,-4.67933 -1.0259,-2.67342 0.94875,-3.19132 3.75853,-0.98575 5.3931,4.23335 18.49359,1.8805 28.15285,-5.05626 2.3314,-1.67427 4.64269,-2.65677 5.48743,-2.33262 1.55457,0.59654 2.0271,2.49389 0.6211,2.49389 -0.4611,0 -2.19322,1.26562 -3.84915,2.8125 -1.65593,1.54687 -3.70446,2.84581 -4.55228,2.88652 -0.97276,0.0467 -1.10912,0.24846 -0.3696,0.54687 1.24643,0.50294 1.65673,4.06475 0.46875,4.06931 -0.38671,0.002 -1.54687,1.26366 -2.57812,2.80484 -1.03125,1.54118 -3.87891,4.10138 -6.32813,5.68931 -2.44921,1.58794 -4.45312,3.29925 -4.45312,3.80292 0,1.10925 -5.77206,3.6575 -6.819,3.01046 -0.72713,-0.4494 3.23055,-4.06023 4.45026,-4.06023 0.83627,0 12.67516,-12.47463 12.67855,-13.35938 0.007,-1.83604 -2.80944,-0.30213 -6.59899,3.59395 -7.26594,7.4702 -12.73295,10.46335 -24.71653,13.53214 -11.43196,2.92752 -15.99338,3.42722 -16.96304,1.85829 z M 225,399.11944 c 0,-0.65618 1.47656,-1.98824 3.28125,-2.96013 1.80469,-0.97189 3.28125,-2.12251 3.28125,-2.55694 0,-0.43443 0.42187,-0.78987 0.9375,-0.78987 2.14897,0 0.69354,2.91067 -2.56137,5.12245 C 226.00552,400.60757 225,400.84873 225,399.11944 Z m 9.375,-7.85943 c 0,-0.33825 1.77869,-2.34216 3.95265,-4.45313 3.44594,-3.3461 3.99989,-3.60539 4.32117,-2.02258 0.24283,1.1963 -0.70565,2.70658 -2.78076,4.42791 -2.9767,2.46917 -5.49306,3.40727 -5.49306,2.0478 z m -36.74615,-13.94365 c -0.86831,-0.86833 -0.0219,-10.49297 1.10847,-12.60517 0.81509,-1.523 0.72619,-2.2566 -0.41124,-3.39404 -1.9482,-1.94819 -1.90611,-2.14309 1.59579,-7.39146 1.67579,-2.51152 3.52107,-5.36321 4.10064,-6.33708 0.57956,-0.97388 2.08019,-2.90394 3.33472,-4.28902 1.25454,-1.38509 3.48454,-4.41678 4.95556,-6.73709 4.47812,-7.06352 11.00614,-14.24357 12.02434,-13.22537 0.59704,0.59704 -0.0278,2.16318 -1.79255,4.49282 -1.48999,1.96697 -3.97285,6.04543 -5.51746,9.06325 -1.5446,3.01783 -3.96853,6.75386 -5.38649,8.30228 -1.41797,1.54842 -2.57813,3.44522 -2.57813,4.21511 0,0.76988 -0.60329,2.72918 -1.34064,4.35398 -3.60689,7.94798 -7.40307,18.89032 -7.5012,21.62195 -0.0646,1.79768 -1.58894,2.9327 -2.59181,1.92984 z m 63.93365,-1.85295 c 0,-0.79603 0.94922,-1.78145 2.10937,-2.18983 14.688,-5.17024 19.45688,-7.26181 19.48684,-8.54668 0.0422,-1.80893 3.55487,-6.03645 6.10995,-7.35333 1.57015,-0.80925 2.14726,-0.63607 3.13129,0.93961 1.05703,1.69258 1.84623,1.86568 6.37495,1.39827 2.84272,-0.29339 5.86333,-1.14855 6.71247,-1.90035 0.84914,-0.7518 3.30085,-1.38366 5.44826,-1.40413 2.1474,-0.0205 5.61107,-0.90793 7.69702,-1.9721 4.46611,-2.27845 4.80485,-2.32723 4.80485,-0.69204 0,3.1694 -10.11646,9.03588 -18.73744,10.86574 -3.51508,0.74609 -5.24661,0.78302 -5.46875,0.11661 -0.17878,-0.53636 -1.661,-0.98164 -3.29381,-0.98953 -1.63281,-0.007 -3.58218,-0.40241 -4.33192,-0.87669 -0.94437,-0.59739 -1.95245,-0.30237 -3.28125,0.96028 -4.98529,4.73714 -8.38526,7.43076 -9.37936,7.43076 -0.5992,0 -3.5986,0.98333 -6.66535,2.18518 -8.47923,3.32299 -10.71712,3.7465 -10.71712,2.02823 z m -49.6875,-2.28256 c -0.77344,-0.53055 -2.35547,-0.9711 -3.51563,-0.979 -1.24362,-0.008 -2.10937,-0.59152 -2.10937,-1.4206 0,-0.77344 0.75019,-1.40625 1.66707,-1.40625 4.43517,0 14.9202,-6.48501 22.03051,-13.6259 5.41763,-5.44093 7.56341,-7.05061 8.3501,-6.26392 1.58404,1.58405 -10.52575,13.59227 -17.923,17.77266 -6.60948,3.73522 -6.21446,5.15072 0.70979,2.54343 4.12356,-1.55269 15.26331,-9.15709 15.94678,-10.88584 0.41843,-1.05838 3.90625,-1.01661 3.90625,0.0468 0,0.46046 -0.63281,1.08002 -1.40625,1.37683 -0.77344,0.29679 -1.40625,1.18567 -1.40625,1.9753 0,0.78962 -0.36386,1.43567 -0.80859,1.43567 -0.44473,0 -2.40117,1.26562 -4.34766,2.8125 -1.94649,1.54687 -3.05918,2.8125 -2.47266,2.8125 0.58652,0 1.06641,0.3707 1.06641,0.82376 0,0.97463 -4.36253,2.70065 -7.03125,2.7819 -1.03125,0.0314 -3.98438,0.30633 -6.5625,0.61095 -2.65488,0.3137 -5.29729,0.13557 -6.09375,-0.41076 z m 95.625,-3.4341 c 0,-1.78319 1.20387,-2.23947 7.10331,-2.69218 7.05278,-0.54121 17.02848,-5.35894 24.30294,-11.737 9.90661,-8.68587 25.67255,-25.58183 30.18527,-32.34882 4.83531,-7.2507 6.6791,-9.38564 7.44458,-8.62015 0.28012,0.28012 -0.14121,1.70144 -0.9363,3.15848 -0.79508,1.45704 -1.93351,3.70386 -2.52983,4.99292 -0.59633,1.28906 -1.4607,3.0763 -1.92084,3.97165 -0.46015,0.89535 -0.83663,2.26645 -0.83663,3.04688 0,0.78043 -0.32873,1.41897 -0.73052,1.41897 -1.21113,0 -13.29491,12.43562 -15.20934,15.65219 -0.98072,1.64776 -2.96342,3.72765 -4.40601,4.62196 -3.79298,2.35143 -8.71663,7.09728 -8.71663,8.40187 0,0.61639 -1.13442,1.40544 -2.52095,1.75343 -1.38651,0.34799 -3.60136,1.40016 -4.92187,2.33813 -5.31272,3.7737 -14.50198,6.96638 -20.4478,7.10432 -4.20303,0.0975 -5.85938,-0.20288 -5.85938,-1.06265 z m -72.1875,-1.69988 c 0,-0.8164 0.66797,-1.48437 1.48437,-1.48437 0.81641,0 1.31739,0.50097 1.11328,1.11328 -0.57944,1.73833 -2.59765,2.02665 -2.59765,0.37109 z m 16.92873,-2.52227 c 1.25252,-2.34035 1.97742,-2.61001 4.47791,-1.66569 3.157,1.19225 2.00087,3.07986 -1.97084,3.21777 -2.98682,0.10373 -3.29209,-0.0852 -2.50707,-1.55208 z m -213.80373,-0.064 c -1.804688,-0.51305 -3.914063,-1.4602 -4.6875,-2.10479 -0.773438,-0.64459 -2.882813,-1.73404 -4.6875,-2.421 -4.633503,-1.76376 -5.160998,-2.2934 -7.767964,-7.79939 -1.279021,-2.70133 -2.986913,-5.46045 -3.795317,-6.13136 -2.350609,-1.95084 -2.93471,-8.83242 -1.199876,-14.13638 0.832237,-2.54441 1.513157,-5.96127 1.513157,-7.59302 0,-3.94854 4.760001,-17.97878 8.8654,-26.13102 3.605268,-7.1591 8.390482,-13.20611 10.450467,-13.20611 2.069967,0 1.555454,1.66489 -1.921931,6.21908 -9.203279,12.05317 -17.231288,38.45647 -14.969193,49.23214 0.726335,3.45995 1.236271,4.12395 3.355288,4.36902 2.820841,0.32623 4.144602,2.60663 2.596189,4.47235 -1.21222,1.46063 -0.456616,4.42301 1.553727,6.09145 1.589546,1.3192 9.557835,2.75875 11.386407,2.05706 0.651005,-0.24981 1.183646,-1.04188 1.183646,-1.76015 0,-0.94521 1.359577,-1.31731 4.921875,-1.3471 2.707031,-0.0226 6.609375,-0.64909 8.671875,-1.39214 5.220883,-1.88088 9.237574,-1.72791 11.186873,0.42604 2.11589,2.33803 1.551947,5.14459 -1.110079,5.5245 -1.150353,0.16417 -2.641472,1.08362 -3.313596,2.04321 -1.466622,2.09389 -5.318573,3.16349 -7.134183,1.98099 C 52.006588,362.85832 52.808202,360 54.6161,360 c 0.680596,0 2.868923,-0.83178 4.862951,-1.84838 4.882031,-2.48901 2.201677,-3.59334 -3.942879,-1.6245 -2.443333,0.78288 -6.860847,1.91294 -9.8167,2.51123 -2.955853,0.59828 -5.592071,1.4402 -5.858262,1.8709 -0.580208,0.9388 4.523208,2.84075 7.622437,2.84075 1.33398,0 2.203853,0.55506 2.203853,1.40625 0,1.65232 -5.942877,1.81308 -11.25,0.30432 z m 226.37933,0.12088 c -0.92428,-1.49552 0.41832,-2.44445 4.48004,-3.16647 2.75857,-0.49037 3.51563,-0.32658 3.51563,0.76061 0,0.76206 -0.94922,1.6584 -2.10938,1.99187 -1.16015,0.33347 -2.81215,0.80094 -3.6711,1.03881 -0.85895,0.23788 -1.85579,-0.0433 -2.21519,-0.62482 z M 245.625,364.92684 c 0,-0.50425 -1.05469,-0.71522 -2.34375,-0.46879 -1.58288,0.30258 -2.33408,0.0322 -2.31394,-0.83313 0.0435,-1.86899 1.59093,-3.51949 8.50391,-9.07033 3.40449,-2.73367 7.10852,-6.2127 8.2312,-7.7312 2.00818,-2.71621 4.79758,-3.73241 4.79758,-1.7478 0,0.5572 -3.67254,4.62821 -8.16122,9.0467 l -8.16122,8.03359 3.55353,-0.66664 c 3.05228,-0.57261 3.5092,-0.43962 3.23934,0.94286 -0.1728,0.88523 -0.94699,1.73366 -1.72043,1.88541 -0.77344,0.15174 -2.35547,0.55721 -3.51563,0.90104 -1.1757,0.34843 -2.10937,0.21932 -2.10937,-0.29171 z M 255,361.03523 c 0,-0.46187 2.06554,-2.16522 4.59008,-3.78522 2.52455,-1.62 7.31842,-5.88273 10.65305,-9.47272 5.9341,-6.38855 7.5262,-7.42936 8.63072,-5.64222 0.67202,1.08735 -12.71318,14.46856 -17.5271,17.52189 C 257.7646,361.92901 255,362.52937 255,361.03523 Z m 21.73771,-2.67586 c 0.17198,-0.90234 1.2576,-1.77543 2.4125,-1.9402 2.30802,-0.32929 2.72057,0.71006 0.97479,2.45583 -1.67948,1.67948 -3.74572,1.36495 -3.38729,-0.51563 z m -66.38739,-0.426 c -0.71913,-1.16357 8.51853,-19.0215 12.75221,-24.65212 1.9385,-2.57813 4.28908,-5.95313 5.22353,-7.5 0.93445,-1.54688 2.16756,-3.23438 2.74024,-3.75 0.57268,-0.51563 2.19761,-2.47143 3.61096,-4.34623 1.41335,-1.87481 4.34931,-4.60908 6.52436,-6.07615 2.17505,-1.46708 5.41889,-4.04642 7.20854,-5.73189 1.78966,-1.68546 3.74843,-3.06448 4.35282,-3.06448 0.60441,0 1.34175,-0.63281 1.63855,-1.40625 0.29679,-0.77344 1.42463,-1.40625 2.50632,-1.40625 1.51537,0 -0.0377,2.01424 -6.76746,8.77721 -4.80377,4.82747 -10.2107,10.94384 -12.01539,13.59194 -1.80469,2.6481 -3.79599,4.81554 -4.42513,4.81654 -0.62914,9.4e-4 -2.1021,1.66674 -3.27325,3.70166 -1.17115,2.03493 -2.83755,3.88506 -3.7031,4.1114 -0.86556,0.22635 -3.55788,3.82635 -5.98294,8.00001 -2.42506,4.17365 -4.99001,8.07049 -5.69989,8.65965 -0.70988,0.58914 -1.29069,1.83382 -1.29069,2.76594 0,1.45211 0.41915,1.57455 2.92752,0.85516 5.77518,-1.6563 15.45762,-9.88979 16.48436,-14.01754 0.73228,-2.9439 5.03516,-8.4494 6.60374,-8.44944 1.88283,-5e-5 1.3566,2.44909 -1.17187,5.454 -1.28906,1.53197 -2.34375,3.31748 -2.34375,3.96782 0,2.09697 -4.4892,7.14354 -7.44293,8.36701 -1.57827,0.65374 -2.86957,1.72172 -2.86957,2.37331 0,0.65158 -1.10602,1.90937 -2.45781,2.7951 -2.80037,1.83487 -12.35902,3.41006 -13.12937,2.1636 z m 31.52468,-1.96462 c 0,-1.57657 1.90398,-3.46875 3.49036,-3.46875 0.95006,0 0.88095,0.54854 -0.29532,2.34375 -1.6624,2.53715 -3.19504,3.0768 -3.19504,1.125 z M 40.484008,351.01461 c -6.89441,-4.82903 -9.308548,-9.47915 -10.16186,-19.57381 -0.455735,-5.39135 -0.282299,-6.86929 0.923555,-7.87006 2.513655,-2.08615 3.605734,-0.3546 3.046367,4.83017 -0.950083,8.80632 2.88039,17.00704 9.394846,20.11357 1.753446,0.83616 3.188084,2.07497 3.188084,2.7529 0,1.69921 -3.81984,1.54814 -6.390992,-0.25277 z m 254.828492,0.65175 c 0,-1.45879 3.56082,-5.28778 4.26504,-4.58624 0.80966,0.80657 -2.04108,5.41988 -3.34915,5.41988 -0.50374,0 -0.91589,-0.37514 -0.91589,-0.83364 z m -15.39983,-0.92984 c -0.28076,-0.45428 0.87157,-1.77296 2.56074,-2.9304 4.41988,-3.02854 7.42992,-7.51019 6.11128,-9.09906 -1.22454,-1.47549 -1.24126,-1.45813 2.97781,-3.0904 1.80469,-0.6982 4.61177,-2.35304 6.23796,-3.67743 1.62618,-1.32439 4.68478,-3.64906 6.79687,-5.16595 4.79811,-3.44594 4.95543,-4.78545 0.32454,-2.76327 -5.89657,2.57486 -7.66928,2.66341 -9.69926,0.48448 -1.02199,-1.09697 -2.68547,-1.99449 -3.69663,-1.99449 -3.47549,0 -1.93865,-2.71386 2.14589,-3.78937 2.19141,-0.57704 5.37959,-1.85893 7.08484,-2.84865 1.70526,-0.98971 3.49823,-1.79948 3.98438,-1.79948 1.61572,0 0.91343,3.12824 -1.22547,5.4586 l -2.10937,2.2982 2.34375,-0.52082 c 5.26291,-1.16949 9.60505,-3.34115 12.72299,-6.36317 3.78745,-3.67094 5.4854,-2.70956 4.05056,2.29343 -0.45983,1.60332 -0.83605,3.05085 -0.83605,3.21673 0,0.16588 -2.36304,2.59032 -5.25121,5.38763 -3.37529,3.26912 -6.64066,5.48677 -9.14062,6.2078 -2.13918,0.61697 -5.65293,2.30859 -7.80834,3.75918 -2.1554,1.45058 -4.37024,2.63742 -4.92187,2.63742 -0.55163,0 -1.00296,0.84515 -1.00296,1.87811 0,1.992 -8.29864,11.24689 -10.08482,11.24689 -0.57999,0 -1.28424,-0.37169 -1.565,-0.82597 z M 240,345.97048 c 0,-1.01311 0.84375,-2.29357 1.875,-2.84548 1.5584,-0.83403 1.875,-0.71296 1.875,0.71702 0,1.76639 -1.66536,3.97048 -3,3.97048 -0.4125,0 -0.75,-0.82891 -0.75,-1.84202 z m 60.46875,-1.90798 c 0.31867,-0.51563 0.97639,-0.9375 1.46158,-0.9375 0.48519,0 0.88217,0.42187 0.88217,0.9375 0,0.51562 -0.65771,0.9375 -1.46158,0.9375 -0.80387,0 -1.20084,-0.42188 -0.88217,-0.9375 z m -24.51651,-4.92188 c -0.93501,-1.50132 0.90869,-2.6482 3.73785,-2.32513 1.85777,0.21215 3.07799,0.92978 3.26921,1.92267 0.24786,1.2871 -0.33948,1.5393 -3.13204,1.34489 -1.89041,-0.13162 -3.63417,-0.55571 -3.87502,-0.94243 z m -7.35849,-2.95884 c -1.03125,-0.78905 -2.84517,-1.44806 -4.03093,-1.46447 -4.87344,-0.0674 -8.62532,-3.3761 -8.62532,-7.60649 0,-2.59643 1.64657,-2.21366 4.36261,1.01418 1.86269,2.21367 3.12281,2.8125 5.91844,2.8125 1.97883,0 4.05763,0.6094 4.69386,1.37602 0.83676,1.00823 2.24563,1.22475 5.27104,0.81007 7.27375,-0.99697 4.3291,2.52694 -3.37095,4.03409 -1.32295,0.25894 -3.16039,-0.16611 -4.21875,-0.9759 z m 15.67496,-4.45667 c 0.19935,-0.59806 1.77867,-1.8469 3.50958,-2.77519 1.73092,-0.92831 3.58577,-2.12648 4.12192,-2.66263 1.35459,-1.35459 2.47479,-1.217 2.47479,0.30396 0,0.70331 -1.60471,2.39081 -3.56602,3.75 -3.68443,2.55331 -7.17637,3.29218 -6.54027,1.38386 z M 271.875,330.62604 c 0,-1.51521 6.6521,-3.72394 7.78961,-2.58643 1.08343,1.08343 -2.97375,3.83539 -5.65446,3.83539 -1.17433,0 -2.13515,-0.56203 -2.13515,-1.24896 z m -30.9375,-5.31354 c 0,-0.51563 0.39345,-0.9375 0.87432,-0.9375 0.48088,0 1.16139,-0.94922 1.51224,-2.10938 1.44989,-4.79438 26.94597,-26.01562 31.25624,-26.01562 2.7552,0 1.28177,2.02335 -3.90447,5.36177 -3.20764,2.06477 -10.85732,8.45305 -16.99929,14.19619 -10.75074,10.05261 -12.73904,11.53607 -12.73904,9.50454 z M 38.531098,317.45653 c -0.941003,-1.13384 -0.797436,-1.57811 0.78337,-2.42413 1.136385,-0.60818 1.935532,-1.97173 1.935532,-3.30252 0,-3.02027 1.894656,-7.04238 3.317384,-7.04238 0.62778,0 1.779572,0.94922 2.559537,2.10937 0.779966,1.16016 1.768423,1.77003 2.196574,1.35528 0.42815,-0.41476 0.197985,-1.11285 -0.511478,-1.55133 -1.290835,-0.79777 -1.644231,-5.7367 -0.538497,-7.52581 1.275308,-2.0635 3.28898,-0.92805 3.28898,1.85455 0,1.78924 0.678797,3.22847 1.875,3.97551 1.03125,0.64402 1.875,1.9035 1.875,2.79883 0,2.36063 -4.184737,4.7702 -7.451728,4.29071 -2.585444,-0.37946 -2.786262,-0.18579 -3.048641,2.94021 -0.236099,2.81291 -0.667342,3.39135 -2.704877,3.6282 -1.333198,0.15497 -2.942469,-0.34294 -3.576156,-1.10649 z M 6.7710996,309.79059 C 5.3319009,308.78254 4.6875,307.37192 4.6875,305.22952 c 0,-1.79678 -0.8874232,-4.23012 -2.109375,-5.78397 -3.05892019,-3.88976 -2.79807863,-12.76969 0.6209609,-21.13961 2.4779589,-6.06613 4.471211,-8.48238 10.5393861,-12.77602 3.771698,-2.66871 7.824028,-2.81405 7.824028,-0.2806 0,1.05309 -0.879287,2.0909 -2.099672,2.47824 -1.15482,0.36652 -4.013171,2.62061 -6.351893,5.00907 -7.4389711,7.59719 -10.6997479,20.36665 -6.548435,25.64419 1.03125,1.31101 1.875,3.41274 1.875,4.67048 0,1.25774 0.8349932,3.24956 1.85554,4.42627 3.032548,3.49655 0.521884,5.14543 -3.5219404,2.31302 z M 347.97814,304.08486 c 0.1667,-0.84708 1.14686,-2.00724 2.17811,-2.57813 1.03125,-0.57089 2.08594,-1.27969 2.34375,-1.57511 0.25781,-0.29543 1.20703,-0.80953 2.10937,-1.14246 1.2119,-0.44713 1.64063,-0.12303 1.64063,1.24026 0,1.01507 0.33718,1.84558 0.7493,1.84558 0.68353,0 9.45536,-5.52365 21.19036,-13.34362 2.52774,-1.68445 6.73601,-5.06654 9.3517,-7.51575 2.61569,-2.44922 5.08269,-4.45313 5.48222,-4.45313 1.40146,0 0.70773,2.83119 -1.14858,4.6875 -1.03125,1.03125 -1.875,2.30282 -1.875,2.8257 0,0.52289 -2.21484,3.11073 -4.92188,5.75076 -3.54141,3.45375 -4.13304,4.33555 -2.10937,3.14397 1.54687,-0.91085 3.65625,-2.36049 4.6875,-3.22143 1.03125,-0.86093 3.49404,-2.38714 5.47287,-3.39155 1.97884,-1.00441 5.1429,-3.10248 7.03125,-4.66238 1.88836,-1.5599 5.12088,-3.93462 7.18338,-5.27715 2.0625,-1.34254 6.95734,-5.33969 10.87741,-8.88257 3.92008,-3.54288 7.92789,-7.11136 8.90625,-7.92995 3.03924,-2.54292 6.3485,-6.64701 9.33958,-11.58281 1.8771,-3.09753 3.61521,-4.84936 5.01332,-5.0529 1.96845,-0.28657 2.08664,-0.061 1.47372,2.8125 -0.96066,4.50394 -3.73321,10.19198 -6.54942,13.43656 -9.18922,10.58698 -11.20483,12.65625 -12.32808,12.65625 -0.69522,0 -1.26403,0.38557 -1.26403,0.85681 0,1.10594 -12.15691,7.92379 -12.86546,7.21522 -0.80772,-0.80772 -7.80058,3.37793 -8.8173,5.27768 -0.48831,0.91241 -3.50867,2.98178 -6.71191,4.59859 -5.2226,2.63606 -11.60226,6.81634 -12.85533,8.42348 -0.77059,0.98832 -9.86985,6.17388 -12.04479,6.86418 -1.45314,0.4612 -2.01771,0.24691 -2.01771,-0.76585 0,-0.77344 0.84375,-1.67405 1.875,-2.00136 1.03125,-0.32731 1.875,-1.27174 1.875,-2.09873 0,-0.827 0.68743,-2.26323 1.52763,-3.19164 1.36174,-1.50472 1.1327,-1.4834 -2.10938,0.19626 -2.00035,1.03635 -5.95731,3.34302 -8.79325,5.12594 -4.02984,2.53351 -6.14408,3.24251 -9.67811,3.24554 -3.69334,0.003 -4.46634,-0.27832 -4.21875,-1.53626 z M 245.77424,300.42 c 0.38476,-1.95718 3.22558,-3.92018 4.22576,-2.92 1.00018,1.00018 -0.96282,3.841 -2.92,4.22576 -1.12239,0.22066 -1.52642,-0.18337 -1.30576,-1.30576 z m 79.77263,-2.95662 c -2.5081,-0.48309 -2.78125,-2.58984 -0.46875,-3.6153 1.33498,-0.59199 13.89958,-5.09904 21.09375,-7.56656 2.10527,-0.72207 2.15536,1.28332 0.0891,3.56654 -1.44564,1.59741 -1.44213,1.71444 0.0514,1.71444 2.34122,0 14.77901,-5.45428 16.96891,-7.44128 1.03125,-0.93571 4.98154,-3.24257 8.77842,-5.12635 7.57631,-3.7589 18.57853,-11.67438 25.85923,-18.60425 4.8503,-4.61658 7.0811,-5.54219 7.0811,-2.9381 0,2.46113 -5.89991,9.69337 -14.23975,17.45541 -12.6491,11.77274 -14.17115,13.02526 -18.104,14.89813 -2.0625,0.98218 -5.19662,2.84272 -6.9647,4.13453 -3.8844,2.83805 -6.13843,1.71292 -3.27877,-1.63666 1.44364,-1.69096 1.47635,-1.86007 0.16302,-0.84292 -1.01223,0.78395 -2.72193,1.05664 -4.45353,0.71032 -1.54581,-0.30917 -3.97055,-0.12106 -5.3883,0.41802 -4.77539,1.81577 -20.37003,5.51957 -22.73397,5.39943 -1.28906,-0.0655 -3.29297,-0.30195 -4.45312,-0.5254 z m -46.89452,-2.32666 c 0.48104,-1.44312 7.87202,-3.90938 9.65983,-3.22332 2.45277,0.94121 1.46558,2.04857 -2.85688,3.20466 -5.33914,1.428 -7.27451,1.43331 -6.80295,0.0187 z M 49.279042,294.47256 c -0.82207,-1.33014 4.549284,-10.83812 6.314878,-11.17814 2.214354,-0.42645 2.01925,0.5867 -1.289335,6.69535 -2.805259,5.17936 -3.958998,6.20849 -5.025543,4.48279 z M 254.27455,294.2076 c 0.40432,-1.21296 0.49163,-1.26232 8.91766,-5.04287 5.61671,-2.52007 7.72796,-2.66204 6.34647,-0.42676 -0.8036,1.30026 -12.1724,6.57453 -14.17154,6.57453 -0.80349,0 -1.29515,-0.4972 -1.09259,-1.1049 z m 54.16295,-1.23885 c 0,-0.875 -0.88541,-1.40625 -2.34375,-1.40625 -4.64958,0 -2.33688,-2.38495 3.51562,-3.62546 10.55229,-2.23669 11.95313,-2.33354 11.95313,-0.82644 0,0.93381 -2.04064,1.84428 -6.32813,2.82344 -5.6426,1.28863 -5.92856,1.45512 -2.63973,1.53683 4.04575,0.10051 11.85672,-3.18507 11.52198,-4.84658 -0.3034,-1.50595 3.17625,-2.03321 4.05326,-0.61417 0.54785,0.88645 1.61304,0.42657 4.12934,-1.78276 1.86506,-1.63755 4.2536,-2.97736 5.30788,-2.97736 1.05427,0 4.52006,-1.03035 7.70175,-2.28967 8.6335,-3.41714 10.94115,-3.84536 10.94115,-2.03031 0,2.24479 -21.13312,12.14181 -32.10517,15.03546 -10.5577,2.78435 -15.70733,3.11327 -15.70733,1.00327 z M 16.372904,288.51562 c -0.849779,-2.19206 0.104239,-4.45312 1.878923,-4.45312 1.801569,0 1.844387,1.89877 0.09638,4.27394 -1.248139,1.69596 -1.382581,1.70814 -1.975302,0.17918 z m 273.548966,0.50973 c -2.64269,-0.50835 -2.79226,-3.08785 -0.17904,-3.08785 1.06168,0 1.70812,-0.35954 1.43652,-0.79899 -0.27159,-0.43945 -3.38376,-1.04128 -6.91593,-1.33739 -3.53219,-0.29613 -8.92471,-1.44465 -11.98341,-2.55225 -3.05869,-1.10761 -7.4597,-2.69655 -9.78001,-3.53095 -2.32031,-0.83441 -4.77623,-2.06855 -5.45759,-2.74251 -0.68136,-0.67398 -1.78351,-1.22541 -2.44921,-1.22541 -0.66571,0 -2.80296,-1.26563 -4.74945,-2.8125 -1.94649,-1.54688 -4.3105,-2.8125 -5.25336,-2.8125 -0.94285,0 -3.09968,-0.58367 -4.79296,-1.29703 -3.92338,-1.6529 -14.69324,-4.32267 -21.35993,-5.29497 -26.56115,-3.87381 -25.3125,-3.62193 -25.3125,-5.10606 0,-2.02538 2.57931,-2.36849 12.02054,-1.59896 4.80661,0.39177 8.95539,0.36264 9.21953,-0.0647 0.26412,-0.42737 1.23721,-0.53677 2.16243,-0.24312 0.92522,0.29365 4.79206,0.71678 8.59298,0.94028 3.80092,0.22351 8.72073,1.05887 10.93289,1.85637 2.21216,0.79749 5.04923,1.1922 6.3046,0.87712 1.84487,-0.46303 2.50175,-0.0917 3.42603,1.93691 0.62894,1.38039 2.32702,3.1218 3.77352,3.86982 1.44649,0.748 2.63098,2.08745 2.63221,2.97656 9.4e-4,1.01705 1.82665,2.51248 4.92188,4.03245 11.07571,5.43896 15.41654,7.32475 18.98214,8.24643 4.22268,1.09151 18.29877,2.15675 30.924,2.34024 7.11258,0.10337 8.47174,0.36975 8.73061,1.71111 0.22862,1.18456 -0.72181,1.84409 -3.7365,2.59282 -2.22371,0.55229 -5.51967,1.39944 -7.32436,1.88255 -4.15136,1.11132 -12.00996,1.77263 -14.76563,1.24255 z M 431.25,283.29706 c 0,-1.3366 1.37603,-2.38778 5.10911,-3.90293 6.95778,-2.82395 20.09232,-16.27798 22.48816,-23.03517 2.9632,-8.35732 3.25737,-8.85896 5.19513,-8.85896 1.30807,0 1.92878,0.65341 2.00385,2.10937 0.0818,1.58735 0.21486,1.70336 0.5375,0.46875 0.2358,-0.90234 0.75196,-1.64062 1.14701,-1.64062 0.97373,0 3.04336,-4.33857 4.24855,-8.90625 0.73752,-2.79518 1.46684,-3.75 2.86444,-3.75 1.67126,0 1.84301,0.52688 1.58064,4.84882 -0.27054,4.45662 -0.11888,4.87366 1.875,5.15625 1.79141,0.25387 2.16936,0.87394 2.16936,3.55903 0,3.10149 -0.19328,3.28982 -4.18701,4.07961 -2.77907,0.54959 -4.29618,0.50046 -4.51171,-0.14613 -0.1786,-0.53578 -1.16368,-0.13518 -2.18908,0.89022 -1.03344,1.03344 -2.57419,1.64709 -3.45703,1.37687 -1.15813,-0.35449 -2.44235,0.88845 -4.70685,4.55557 -3.81911,6.18463 -17.75479,19.55464 -23.34837,22.40063 -5.09875,2.59423 -6.8187,2.79474 -6.8187,0.79494 z m -15.40922,-1.95073 c -0.28593,-0.46264 3.11956,-3.73217 7.56775,-7.26563 4.4482,-3.53344 8.98146,-7.44921 10.07393,-8.70169 1.09246,-1.25248 3.35738,-3.83487 5.03316,-5.73863 1.67579,-1.90376 3.04688,-3.92956 3.04688,-4.50177 0,-1.15794 4.45442,-2.55919 5.33526,-1.67835 0.86534,0.86533 -2.32184,8.29237 -4.68385,10.91474 -4.34056,4.81899 -9.22516,8.4375 -11.38973,8.4375 -1.37384,0 -4.21257,1.80686 -7.36445,4.6875 -5.1131,4.67309 -6.63358,5.44069 -7.61895,3.84633 z M 22.005869,280.27144 c -0.743722,-1.20338 1.020246,-3.45202 3.267465,-4.16526 2.161744,-0.68611 6.888373,1.10896 6.134001,2.32957 -0.319271,0.51659 -1.796322,0.93925 -3.282335,0.93925 -1.486013,0 -2.962576,0.42187 -3.28125,0.9375 -0.751593,1.21611 -2.072722,1.19698 -2.837881,-0.0411 z m 18.306631,0.10489 c 0,-1.05728 5.032483,-4.75133 6.472847,-4.75133 1.774943,0 1.122969,1.66355 -1.443027,3.68196 -2.58889,2.03642 -5.02982,2.55538 -5.02982,1.06937 z m 33.923587,-0.74159 c 0.311532,-1.61765 6.762837,-5.84031 8.967038,-5.86932 2.023653,-0.0266 1.273598,2.63886 -0.9375,3.33161 -1.160156,0.36349 -3.115487,1.44661 -4.34518,2.40693 -2.791307,2.17986 -4.087836,2.22588 -3.684358,0.13078 z m -41.067335,-3.49609 c -0.772862,-2.01405 0.395772,-3.32615 2.962465,-3.32615 1.640066,0 2.433905,-0.65082 2.858804,-2.34375 0.612746,-2.44137 1.375331,-2.66882 9.274961,-2.76638 3.261755,-0.0403 4.022287,-0.49052 6.016446,-3.56175 2.46765,-3.80044 4.781072,-4.6198 4.781072,-1.69334 0,1.78796 0.08391,1.78571 4.453125,-0.11942 2.449219,-1.06795 4.984792,-2.3651 5.634608,-2.88255 2.853029,-2.27192 17.652168,-6.35183 25.123145,-6.92609 l 7.948622,-0.61098 -3.532875,-1.66392 c -1.943081,-0.91515 -4.271156,-1.89377 -5.1735,-2.1747 -1.962777,-0.61107 -2.210619,-3.38212 -0.302497,-3.38212 0.735969,0 4.048119,1.41254 7.360322,3.13898 5.38224,2.80542 7.13285,3.20926 16.4739,3.80033 6.304,0.39891 12.59113,1.39304 15.84281,2.50511 7.9432,2.71658 15.62842,5.90427 16.23788,6.73519 0.29386,0.40064 3.8798,0.0883 7.96875,-0.69417 4.08895,-0.78244 8.71179,-1.42269 10.27298,-1.42278 1.67823,-9e-5 3.49477,-0.7666 4.44395,-1.87516 0.88299,-1.03125 2.1369,-1.90502 2.78648,-1.9417 0.64958,-0.0367 4.44187,-0.36364 8.42732,-0.72656 5.83428,-0.53127 7.34568,-0.40079 7.75644,0.66964 0.73543,1.91649 0.37768,2.06612 -6.71236,2.80747 l -6.41535,0.6708 5.625,0.63644 c 3.09375,0.35003 8.68359,0.91537 12.42187,1.2563 5.87833,0.5361 6.79688,0.86467 6.79688,2.43118 0,1.6307 -0.44404,1.74394 -4.45313,1.13559 -8.3731,-1.27055 -37.98847,-0.96766 -40.41315,0.41331 -2.59398,1.47742 -1.73396,2.69244 2.21003,3.12226 4.59562,0.50084 3.44453,2.77855 -1.60528,3.17644 -4.39533,0.34632 -4.68032,0.21106 -8.11094,-3.8497 -0.9081,-1.07489 -1.99501,-1.31816 -3.75,-0.83931 -1.35921,0.37086 -3.20956,0.64168 -4.11191,0.60183 -0.90234,-0.0398 -1.64062,0.48493 -1.64062,1.16618 0,0.68126 -0.94922,1.49303 -2.10938,1.80393 -2.99328,0.80217 -3.51562,0.73122 -3.51562,-0.47763 0,-1.57585 2.97249,-3.55498 5.39062,-3.58916 1.16016,-0.0164 2.10938,-0.45169 2.10938,-0.96731 0,-0.51563 0.73828,-0.95439 1.64062,-0.97504 2.56631,-0.0587 -2.56795,-2.54374 -10.82321,-5.23852 -6.7172,-2.19272 -8.47735,-2.3537 -25.50069,-2.33219 -16.666095,0.021 -19.074214,0.23665 -27.19172,2.43453 -4.898438,1.3263 -10.039508,3.23665 -11.424601,4.24521 -5.102403,3.71535 -14.286854,7.76368 -18.480087,8.14568 -6.650775,0.60586 -8.532812,1.15083 -8.532812,2.4708 0,1.15268 -5.568863,4.37453 -7.56123,4.37453 -0.514314,0 -1.170197,-0.61261 -1.457518,-1.36135 z M 62.8125,275.25337 c 0,-2.6177 10.443803,-9.94087 14.176991,-9.94087 2.177322,0 0.447314,2.57168 -2.429912,3.6121 -1.789106,0.64695 -4.993083,2.63014 -7.11995,4.40709 -4.355368,3.63881 -4.627129,3.75167 -4.627129,1.92168 z m 8.4375,-0.57463 c 0,-2.30655 22.130063,-10.30374 28.512825,-10.30374 4.795565,0 2.254545,1.46673 -7.1847,4.14717 -5.285156,1.50081 -11.599256,3.71291 -14.031334,4.91579 -4.724202,2.33652 -7.296791,2.77398 -7.296791,1.24078 z m 19.385311,-1.54343 c -1.43328,-1.43328 -0.34831,-2.05531 5.300855,-3.03908 8.693794,-1.51395 13.022034,-1.37182 12.648194,0.41535 -0.23085,1.10363 -1.91489,1.53285 -7.06435,1.80051 -3.718679,0.19329 -7.546069,0.60054 -8.505313,0.90499 -0.95924,0.30444 -2.029964,0.26765 -2.379386,-0.0817 z m 169.804759,-5.32917 c -0.691,-0.691 -3.84652,-2.41875 -7.01227,-3.83946 -5.1857,-2.3272 -7.69479,-5.01218 -6.13833,-6.56865 1.03986,-1.03985 3.31006,-0.48886 4.45885,1.0822 0.97073,1.32756 1.42422,1.3974 2.62156,0.4037 1.04605,-0.86815 1.94898,-0.9333 3.25412,-0.23481 2.55678,1.36834 7.6885,7.40196 7.6885,9.03975 0,1.71953 -3.19332,1.79638 -4.87243,0.11727 z M 24.029515,263.71702 c -1.684039,-1.68404 -0.294122,-4.14141 3.39236,-5.99768 2.191406,-1.10345 6.03779,-3.4672 8.547518,-5.25278 3.08832,-2.19724 4.870822,-2.93884 5.515109,-2.29455 1.707541,1.70753 -0.0081,3.6721 -6.260026,7.16839 -3.379906,1.89015 -6.383474,3.82204 -6.674593,4.29308 -0.828433,1.34043 -3.864214,2.73969 -4.520368,2.08354 z m 253.194465,-1.00406 c -2.20449,-2.43594 -0.69454,-4.35054 1.96304,-2.48911 2.2811,1.59775 2.77443,4.15115 0.80203,4.15115 -0.69352,0 -1.9378,-0.74792 -2.76507,-1.66204 z m 12.46352,0.89302 c -2.75262,-1.24733 -5.625,-3.44543 -5.625,-4.30455 0,-0.4799 -0.70191,-1.64814 -1.55979,-2.59609 -1.33371,-1.47373 -1.38227,-2.05527 -0.33501,-4.0121 0.80296,-1.50033 1.01886,-3.79099 0.62687,-6.65087 -0.44225,-3.22654 -0.19165,-5.05007 0.96249,-7.00387 2.7802,-4.7065 7.80544,-5.99688 7.80544,-2.00427 0,0.88609 0.67387,2.57316 1.49751,3.74906 1.3575,1.9381 1.60285,1.99391 2.62435,0.59692 0.72168,-0.98695 2.12151,-1.42787 3.89312,-1.22626 2.35835,0.26837 2.83539,0.7937 3.23502,3.56237 0.55066,3.81505 5.24661,7.53368 9.51364,7.53368 1.75176,0 2.67386,0.48495 2.67386,1.40625 0,3.00577 -13.3097,0.8146 -15.07376,-2.48158 -0.66122,-1.23549 -1.59721,-1.5436 -3.52061,-1.15892 -2.19946,0.43989 -3.03169,-0.0158 -5.1855,-2.83963 -3.62365,-4.75086 -4.72403,-4.35769 -4.0371,1.44245 0.70136,5.92177 2.32622,8.51333 6.61319,10.54763 4.69314,2.22704 4.93352,3.2393 1.14511,4.8222 -1.82523,0.76263 -3.43763,1.35695 -3.58309,1.3207 -0.14547,-0.0363 -0.8973,-0.35264 -1.67074,-0.70312 z m 34.6875,-8.85057 c 0,-1.76213 6.34913,-3.15628 7.79398,-1.71143 1.35907,1.35907 0.72643,1.7707 -3.8448,2.50166 -3.18211,0.50884 -3.94918,0.35534 -3.94918,-0.79023 z m 157.65824,-1.7718 c 0.1725,-1.21286 1.07354,-2.32871 2.02727,-2.51056 1.32911,-0.25344 1.64664,0.16561 1.40625,1.85584 -0.1725,1.21286 -1.07354,2.32871 -2.02727,2.51056 -1.32911,0.25344 -1.64664,-0.16561 -1.40625,-1.85584 z M 45.374914,250.16067 c -0.386029,-0.62461 0.290279,-1.83458 1.585296,-2.83624 1.242197,-0.9608 3.425988,-2.79091 4.852869,-4.06692 2.705282,-2.41923 5.767878,-3.02124 6.808025,-1.33825 0.333719,0.53997 3.206273,0.92892 6.383454,0.86434 3.177181,-0.0646 6.409504,-0.085 7.182942,-0.0455 0.773437,0.0396 2.958202,-0.18111 4.855033,-0.49035 4.133054,-0.67387 10.144967,1.10783 10.144967,3.00654 0,1.12571 -1.462508,1.26887 -8.52194,0.83423 -8.350241,-0.51411 -18.062042,0.64995 -21.920052,2.62734 -1.016533,0.52102 -3.214804,0.89593 -4.885046,0.83314 -1.670242,-0.0628 -3.289212,0.29424 -3.597712,0.7934 -0.758107,1.22665 -2.068362,1.14418 -2.887836,-0.18176 z M 543.39504,105.44861 c -0.83602,-0.83602 -1.52004,-2.73568 -1.52004,-4.22147 0,-4.944981 1.93127,-7.404465 8.54201,-10.878316 4.70326,-2.471492 6.57735,-4.029888 7.284,-6.056992 0.95444,-2.737911 3.86149,-3.83834 3.86149,-1.461722 0,2.924521 -4.4382,7.745552 -9.31994,10.123873 -3.00817,1.465533 -5.42054,3.348511 -5.87952,4.589236 -0.9759,2.638111 -0.29066,3.405631 1.62279,1.817606 2.47633,-2.055178 3.4169,0.164972 1.6059,3.790655 -1.85172,3.70722 -3.99287,4.50095 -6.19669,2.29713 z M 513.4375,85.625 c -0.97786,-0.977855 -0.73238,-4.822979 0.35064,-5.492319 0.53659,-0.331637 0.74168,-1.340095 0.45573,-2.241019 -0.28593,-0.900924 -0.67062,-3.415886 -0.85485,-5.588805 -0.18422,-2.172918 -0.97951,-4.458888 -1.76732,-5.079934 -2.36099,-1.861228 -2.95021,-5.256723 -1.03944,-5.989957 0.95082,-0.364864 1.80517,-0.164434 2.01777,0.473368 0.20279,0.608391 1.00423,1.106166 1.78095,1.106166 2.85685,0 4.93015,3.966502 4.96283,9.494583 0.0362,6.122571 1.49005,8.134612 4.32685,5.988096 0.98895,-0.748301 2.93335,-1.373965 4.32088,-1.390364 1.38754,-0.0164 2.78354,-0.45169 3.10221,-0.967315 0.31867,-0.515625 1.84108,-0.9375 3.38314,-0.9375 1.54204,0 4.06079,-0.650053 5.5972,-1.444563 2.92861,-1.514442 4.61341,-1.175046 4.61341,0.929348 0,0.68702 1.65094,1.909703 3.66876,2.717073 3.31317,1.325668 6.64374,4.556229 6.64374,6.444241 0,1.243495 -3.61477,0.800121 -4.40654,-0.540488 -1.05099,-1.779502 -4.43695,-3.418111 -7.06308,-3.418111 -1.21984,0 -2.67565,-0.457776 -3.23516,-1.017279 -0.73137,-0.731373 -1.8625,-0.580202 -4.02462,0.537877 -1.65404,0.855337 -3.21448,1.348017 -3.46766,1.094846 -0.64399,-0.643997 -10.19322,2.732503 -12.70651,4.492884 -2.14329,1.501216 -5.56127,1.926825 -6.65893,0.829172 z m 23.75,-15.244257 c -3.48768,-0.511513 -5.17019,-1.55559 -9.70914,-6.024967 -3.01973,-2.973428 -5.30195,-5.594684 -5.07163,-5.825015 1.26868,-1.268671 6.64981,1.188576 9.61056,4.388578 3.41884,3.695096 5.98295,4.354424 14.31084,3.679841 2.96279,-0.239995 2.73963,2.582602 -0.29541,3.736524 -1.32263,0.502863 -2.90466,0.857928 -3.51563,0.789034 -0.61096,-0.06889 -3.00928,-0.403692 -5.32959,-0.743995 z M 534.375,57.462911 c -0.77344,-0.282735 -2.33916,-1.36233 -3.47937,-2.399102 -1.54172,-1.401841 -1.85085,-2.300366 -1.20599,-3.505302 0.55622,-1.039312 0.47437,-2.660816 -0.22828,-4.522354 -0.60248,-1.596151 -0.7794,-3.218114 -0.39315,-3.604361 1.18695,-1.186946 5.3014,4.661194 5.06077,7.193208 -0.18959,1.995063 0.3003,2.472954 3.29289,3.212217 3.92122,0.968663 4.63035,2.832867 1.40625,3.69689 -2.38475,0.63909 -2.51582,0.636995 -4.45312,-0.07119 z M 569.0625,53.6005 c 0,-0.9416 1.46325,-2.932043 3.25166,-4.423206 1.78842,-1.491163 3.50838,-3.879988 3.82213,-5.308499 0.31376,-1.428511 0.91142,-2.808016 1.32815,-3.065566 1.01726,-0.628705 6.59806,1.361055 6.59806,2.352451 0,2.604907 -2.22234,5.716488 -4.8886,6.844697 -1.69408,0.716838 -3.88381,2.205318 -4.86608,3.307733 -2.21279,2.483471 -5.24532,2.652514 -5.24532,0.29239 z M 548.00106,43.096598 c -5.41527,-1.922612 -6.26903,-3.367286 -3.30931,-5.599804 l 2.12682,-1.604261 -2.52966,-0.634904 c -1.96785,-0.493898 -2.9263,-0.159241 -4.31559,1.506859 -0.98227,1.177969 -1.79997,2.458168 -1.81713,2.844887 -0.0172,0.386719 -0.64304,0.703125 -1.39086,0.703125 -0.74781,0 -1.74695,0.692043 -2.2203,1.537873 -1.11697,1.995923 -2.98253,0.823464 -2.98253,-1.874451 0,-2.6957 1.67627,-4.350922 4.40625,-4.350922 1.18594,0 2.15625,-0.443402 2.15625,-0.985338 0,-1.249789 6.34348,-3.948182 7.54127,-3.207907 0.49293,0.304646 0.89623,1.103469 0.89623,1.775163 0,0.861247 1.48879,1.199741 5.05037,1.148259 5.67499,-0.08203 8.07463,1.304584 8.07463,4.665865 0,2.666027 -3.09683,6.028851 -5.39063,5.853637 -0.90234,-0.06893 -3.73545,-0.869064 -6.29581,-1.778081 z m 6.37801,-3.549777 c -0.33649,-1.286756 -1.11729,-1.604564 -3.19348,-1.299844 -3.05185,0.447916 -3.63808,1.695463 -1.10747,2.35678 3.62014,0.94604 4.752,0.667891 4.30095,-1.056936 z"
     id="path4315"
     inkscape:connector-curvature="0" />
</svg>
